<svg xmlns="http://www.w3.org/2000/svg" width="500" height="500" viewBox="0 0 500 500" fill="none"><path d="M254.06 484.94C377.7 484.94 477.93 423.603 477.93 347.94C477.93 272.277 377.7 210.94 254.06 210.94C130.42 210.94 30.1899 272.277 30.1899 347.94C30.1899 423.603 130.42 484.94 254.06 484.94Z" fill="white"></path><path d="M367.34 404.79C366.48 404.79 365.2 404.64 364 403.95L324.42 381.1C323 380.28 322.16 378.91 322.16 377.44C322.16 375.96 323.01 374.59 324.42 373.78L389.96 335.94C391.17 335.24 392.45 335.1 393.31 335.1C394.17 335.1 395.45 335.25 396.65 335.94L436.23 358.79C437.65 359.61 438.49 360.98 438.49 362.45C438.49 363.93 437.64 365.29 436.22 366.11L370.68 403.95C369.48 404.65 368.2 404.79 367.34 404.79Z" fill="#E0E0E0"></path><path d="M284.16 454.89C279.01 454.89 274.02 454.32 269.33 453.21C264.51 452.07 260.1 450.44 256.24 448.38L256.14 448.33C255.35 447.88 254.32 447.27 253.01 446.45C251.77 445.68 250.51 444.87 249.2 444.01C247.89 443.15 246.67 442.33 245.52 441.54C244.33 440.72 243.41 440.07 242.73 439.54C239.34 436.89 236.79 433.86 235.12 430.51C233.28 426.82 232.74 422.93 233.51 418.95C234.24 415.17 236.26 411.4 239.52 407.75C242.6 404.3 246.92 401.13 252.71 398.06C259.13 394.66 265.35 392.16 271.2 390.63C277.07 389.1 282.72 388.3 287.98 388.25H288.48C293.61 388.25 298.51 388.89 303.04 390.15C307.62 391.43 311.95 393.15 315.91 395.29C317.48 396.16 319.17 397.19 320.99 398.38C322.83 399.58 324.36 400.66 325.68 401.68C328.14 403.5 329.87 405.53 330.83 407.71C331.75 409.84 332.05 411.98 331.72 414.08C331.87 414.07 332.01 414.06 332.16 414.06H332.44C334.31 414.06 336.03 414.61 337.44 415.66C339.34 417.01 340.3 419.24 339.95 421.54C339.7 423.13 339.29 424.85 338.73 426.65C338.05 428.79 336.83 430.99 335.09 433.19C333.47 435.25 331.29 437.34 328.46 439.58C325.72 441.74 322.08 444.03 317.65 446.38C312.1 449.32 306.44 451.5 300.83 452.86C295.24 454.21 289.75 454.9 284.5 454.93L284.16 454.89ZM280.65 421C280.83 421.13 281.03 421.27 281.26 421.42C283.03 422.58 284.78 423.26 286.47 423.45C286.79 423.49 287.09 423.5 287.39 423.5C288.15 423.5 288.85 423.38 289.53 423.15C289.37 423.03 289.19 422.91 288.99 422.78C287.2 421.61 285.43 420.91 283.72 420.69C283.41 420.65 283.1 420.63 282.81 420.63C282.06 420.63 281.35 420.75 280.65 421Z" fill="#E0E0E0"></path><path d="M166.83 436.66L38.1001 362.5C35.3801 360.93 35.3801 358.39 38.1001 356.82L299.35 206.05C302.07 204.48 306.47 204.48 309.18 206.05L437.91 280.2C440.63 281.77 440.63 284.31 437.91 285.88L176.66 436.66C173.95 438.22 169.55 438.22 166.83 436.66Z" fill="#E0E0E0"></path><path d="M158.2 59.3601L151.65 63.1401C151.68 62.8501 151.71 62.5601 151.71 62.2701V60.3701C151.71 56.9901 149.34 55.6201 146.41 57.3101C145.23 57.9901 144.14 59.0801 143.25 60.3501C142.77 56.1001 139.44 54.5201 135.39 56.8601C131.01 59.3901 127.47 65.5301 127.47 70.5901V73.4301C127.47 74.7401 127.71 75.8401 128.14 76.7201L122.7 79.8601C121.08 80.8001 119.76 83.0801 119.76 84.9501C119.76 86.8201 121.08 87.5801 122.7 86.6501L158.2 66.1501C159.82 65.2101 161.14 62.9301 161.14 61.0601C161.14 59.1801 159.83 58.4201 158.2 59.3601Z" fill="white"></path><path d="M114.89 41.96L111.28 43.35V35.39C111.28 29.08 106.25 27.57 100.78 30.72C95.3099 33.88 90.8799 41.55 90.8799 47.86V49.02C89.6399 48.53 88.0399 48.72 86.2899 49.73C82.3599 52 79.1699 57.52 79.1699 62.07V62.6L74.1299 65.51C71.5399 67.01 69.4399 70.64 69.4399 73.63C69.4399 76.62 71.5399 77.83 74.1299 76.34L114.9 52.8C117.49 51.3 119.59 47.67 119.59 44.68C119.58 41.67 117.48 40.46 114.89 41.96Z" fill="white"></path><path d="M60.9299 333.55L67.7399 329.62C67.7399 329.62 71.7899 312.79 70.1799 297.64C67.9099 276.35 53.8899 268.33 48.5599 270.17C43.2299 272.01 41.6899 278.2 50.5099 290.89C55.7099 298.37 62.0999 313.96 60.9299 333.55Z" fill="#009FCF"></path><g opacity="0.15"><path opacity="0.15" d="M60.9299 333.55L67.7399 329.62C67.7399 329.62 71.7899 312.79 70.1799 297.64C67.9099 276.35 53.8899 268.33 48.5599 270.17C43.2299 272.01 41.6899 278.2 50.5099 290.89C55.7099 298.37 62.0999 313.96 60.9299 333.55Z" fill="black"></path></g><path d="M63.7499 325.28C63.7299 325.28 63.7099 325.28 63.6799 325.27C63.4199 325.22 63.2599 324.97 63.2999 324.72C67.0299 305.08 60.1699 283.01 51.6699 273.82C51.4899 273.63 51.4999 273.33 51.6999 273.15C51.8899 272.98 52.1899 272.98 52.3699 273.18C61.0199 282.53 68.0199 304.96 64.2299 324.89C64.1999 325.14 63.9899 325.3 63.7499 325.28Z" fill="white"></path><path d="M42.1299 346.83C41.0599 347.38 38.1999 344.93 37.3999 344.33C36.0399 343.31 34.9599 341.91 34.2799 340.36C33.4799 338.55 33.3599 336.65 33.7299 334.71C33.9199 333.7 34.2599 332.73 34.5899 331.76C34.9199 330.81 35.2399 329.86 35.5699 328.9C35.8899 327.96 36.2199 326.99 36.1399 326C35.9899 324.01 34.2999 322.53 32.7599 321.25C31.0599 319.84 29.3099 318 29.4399 315.61C29.5399 313.77 30.5799 312.11 31.7899 310.72C32.9999 309.33 34.4199 308.13 35.5299 306.65C36.3299 305.59 36.9699 304.33 36.9199 303C36.8899 302.18 36.5899 301.39 36.2299 300.64C35.4699 299.04 34.4299 297.57 33.9299 295.87C33.4299 294.17 33.6199 292.1 34.9799 290.97C36.0999 290.04 37.6899 289.99 39.1399 290.16C40.4699 290.32 41.7499 290.99 42.8899 291.7C46.5699 294 48.5099 298.59 52.4399 300.41C53.9599 301.11 55.6499 301.34 57.2399 301.84C58.8299 302.35 60.4399 303.26 61.1099 304.79C62.4399 307.81 59.5199 311.3 60.3999 314.48C61.1799 317.29 63.8099 318.49 65.1999 321.06C65.8099 322.18 65.8899 323.45 65.7199 324.72C65.4299 326.86 65.0399 328.43 63.8799 330.77C62.9299 332.7 60.2399 336.36 60.2399 336.36C60.2399 336.36 42.2899 346.75 42.1299 346.83Z" fill="#009FCF"></path><path d="M52.5499 341.4C52.5399 341.4 52.5399 341.4 52.5399 341.4C52.2699 341.38 52.0799 341.15 52.1099 340.89C53.8299 322.21 46.0499 301.1 39.9399 294.77C39.7599 294.58 39.7599 294.28 39.9499 294.1C40.1399 293.92 40.4399 293.93 40.6199 294.11C46.8499 300.57 54.7899 322.03 53.0499 340.97C53.0199 341.23 52.7999 341.42 52.5499 341.4Z" fill="white"></path><path d="M50.6899 318.37C50.6399 318.37 50.5999 318.36 50.5499 318.34C44.6299 316.18 37.1499 315.47 37.0699 315.46C36.8099 315.44 36.6199 315.21 36.6399 314.95C36.6599 314.69 36.8699 314.5 37.1499 314.52C37.2299 314.53 44.8199 315.24 50.8599 317.45C51.0999 317.54 51.2299 317.81 51.1399 318.05C51.0799 318.26 50.8899 318.38 50.6899 318.37Z" fill="white"></path><path d="M46.62 357.77L166.3 426.86C170.18 429.1 174.76 429.15 178.79 427.09L419.74 287.97C423.54 285.78 426.61 280.88 426.61 277.02C426.61 273.16 423.53 268.26 419.74 266.07L300.5 197.23C296.72 195.05 290.53 195.05 286.75 197.23L46.62 335.87C42.82 338.06 39.75 342.96 39.75 346.82C39.74 350.68 42.82 355.58 46.62 357.77Z" fill="#37474F"></path><path d="M166.3 426.86L46.62 357.77C42.82 355.58 39.75 350.68 39.75 346.82C39.75 342.97 42.83 338.06 46.62 335.87L172.82 263.01V428.57C170.57 428.59 168.34 428.04 166.3 426.86Z" fill="#263238"></path><path d="M169.15 414.55C172.48 416.47 177.94 416.47 181.27 414.55L419.78 276.85C424.91 273.89 424.91 269.05 419.78 266.08L300.52 197.23C296.74 195.05 290.55 195.05 286.77 197.23L46.6299 335.87C42.8499 338.05 42.8499 341.62 46.6299 343.81L169.15 414.55Z" fill="#455A64"></path><path d="M180.73 400.68C184.34 402.76 190.19 402.76 193.79 400.68L399.02 282.19C402.63 280.11 402.63 276.73 399.02 274.65L286.83 209.88C283.24 207.81 277.36 207.81 273.77 209.88L68.5399 328.37C64.9499 330.44 64.9499 333.84 68.5399 335.91L180.73 400.68Z" fill="#37474F"></path><path d="M280.69 208.35C282.92 208.41 285.13 208.91 286.82 209.88L399.01 274.65C402.62 276.73 402.62 280.11 399.01 282.19L376.77 295.03L280.68 233.67V208.35H280.69Z" fill="#263238"></path><path d="M273.69 214.79C277.28 212.72 283.16 212.72 286.75 214.79L398.94 279.56C399.65 279.97 400.21 280.44 400.64 280.93C400.22 281.39 399.68 281.82 399.01 282.2L193.79 400.68C190.18 402.76 184.33 402.76 180.73 400.68L68.5401 335.92C67.8401 335.51 67.2701 335.05 66.8501 334.57C67.2701 334.11 67.8001 333.67 68.4701 333.28L273.69 214.79Z" fill="#FAFAFA"></path><path d="M358.01 244.361L338.13 232.881C336.94 232.201 336.88 231.121 338 230.481C339.11 229.841 340.98 229.871 342.16 230.561L362.04 242.041C363.23 242.721 363.29 243.801 362.17 244.441C361.06 245.081 359.2 245.041 358.01 244.361Z" fill="#263238"></path><path d="M323.87 224.681C322.76 224.041 322.76 223.001 323.87 222.351C324.98 221.711 326.79 221.711 327.9 222.351C329.01 222.991 329.01 224.031 327.9 224.681C326.78 225.321 324.98 225.321 323.87 224.681Z" fill="#263238"></path><path d="M315.81 220.02C314.7 219.38 314.7 218.34 315.81 217.69C316.92 217.05 318.73 217.05 319.84 217.69C320.95 218.33 320.95 219.37 319.84 220.02C318.72 220.66 316.92 220.66 315.81 220.02Z" fill="#263238"></path><path d="M380.29 257.25C379.18 256.61 379.18 255.57 380.29 254.92C381.4 254.28 383.21 254.28 384.32 254.92C385.43 255.56 385.43 256.6 384.32 257.25C383.21 257.89 381.4 257.89 380.29 257.25Z" fill="#263238"></path><path d="M372.23 252.59C371.12 251.95 371.12 250.91 372.23 250.26C373.34 249.62 375.15 249.62 376.26 250.26C377.37 250.9 377.37 251.94 376.26 252.59C375.15 253.23 373.34 253.23 372.23 252.59Z" fill="#263238"></path><path d="M175.72 367.59V368.02C175.72 368.71 176.21 369.56 176.81 369.9L200.16 383.38C200.76 383.73 201.74 383.73 202.34 383.38L241 361.06C241.6 360.71 242.09 359.87 242.09 359.18V358.75C242.09 358.06 241.6 357.21 241 356.87L217.65 343.39C217.05 343.04 216.07 343.04 215.47 343.39L176.8 365.7C176.2 366.05 175.72 366.89 175.72 367.59Z" fill="#009FCF"></path><path d="M175.72 367.59V368.02C175.72 368.71 176.21 369.56 176.81 369.9L200.16 383.38C200.76 383.73 201.74 383.73 202.34 383.38L241 361.06C241.6 360.71 242.09 359.87 242.09 359.18V358.75C242.09 358.06 241.6 357.21 241 356.87L217.65 343.39C217.05 343.04 216.07 343.04 215.47 343.39L176.8 365.7C176.2 366.05 175.72 366.89 175.72 367.59Z" fill="#009FCF"></path><path opacity="0.3" d="M240.99 356.86L217.64 343.38C217.04 343.03 216.06 343.03 215.46 343.38L201.24 351.59V383.64C201.63 383.64 202.03 383.55 202.33 383.38L240.99 361.06C241.59 360.71 242.08 359.87 242.08 359.18V358.75C242.07 358.05 241.59 357.21 240.99 356.86Z" fill="white"></path><path opacity="0.15" d="M240.99 356.86L217.64 343.38C217.04 343.03 216.06 343.03 215.46 343.38L201.24 351.59V383.64C201.63 383.64 202.03 383.55 202.33 383.38L240.99 361.06C241.59 360.71 242.08 359.87 242.08 359.18V358.75C242.07 358.05 241.59 357.21 240.99 356.86Z" fill="black"></path><path opacity="0.3" d="M201.24 351.6L176.8 365.7C176.2 366.05 175.71 366.89 175.71 367.59V368.02C175.71 368.71 176.2 369.56 176.8 369.9L200.15 383.38C200.45 383.55 200.84 383.64 201.24 383.64V351.6Z" fill="white"></path><path opacity="0.2" d="M201.24 351.6L176.8 365.7C176.2 366.05 175.71 366.89 175.71 367.59V368.02C175.71 368.71 176.2 369.56 176.8 369.9L200.15 383.38C200.45 383.55 200.84 383.64 201.24 383.64V351.6Z" fill="black"></path><path d="M196.41 378.28L176.8 366.96C176.2 366.61 176.2 366.05 176.8 365.7L215.46 343.38C216.06 343.03 217.04 343.03 217.64 343.38L240.99 356.86C241.59 357.21 241.59 357.77 240.99 358.12L234.58 361.82L232.33 363.12L202.33 380.44C201.73 380.79 200.75 380.79 200.15 380.44L198.25 379.34L196.41 378.28Z" fill="#009FCF"></path><path opacity="0.3" d="M196.41 378.28L176.8 366.96C176.2 366.61 176.2 366.05 176.8 365.7L215.46 343.38C216.06 343.03 217.04 343.03 217.64 343.38L240.99 356.86C241.59 357.21 241.59 357.77 240.99 358.12L234.58 361.82L232.33 363.12L202.33 380.44C201.73 380.79 200.75 380.79 200.15 380.44L198.25 379.34L196.41 378.28Z" fill="white"></path><path opacity="0.15" d="M214.21 359.47L240.98 356.86L214.44 358.36L217.63 343.38C217.3 343.19 216.87 343.11 216.44 343.13L211.43 363.38L176.34 366.27C176.31 366.51 176.46 366.76 176.78 366.95L205.11 365.31L201.21 380.69L206.2 365.24L211.04 364.96C211.65 364.92 212.21 364.68 212.64 364.29C213.04 363.93 213.34 363.44 213.46 362.89L214.21 359.47Z" fill="black"></path><path opacity="0.3" d="M184.73 365.59L211.44 363.39L212.4 359.56L212.93 357.43L216.46 343.14C216.1 343.15 215.74 343.23 215.47 343.39L196.14 354.55L176.8 365.7C176.52 365.86 176.38 366.07 176.36 366.28L181.72 365.84L184.73 365.59Z" fill="white"></path><path d="M212.13 340.19C214.57 338.78 218.53 338.78 220.97 340.19C223.41 341.6 223.41 343.89 220.97 345.29C218.53 346.7 214.57 346.7 212.13 345.29C209.69 343.88 209.69 341.6 212.13 340.19Z" fill="#F28F8F"></path><path d="M213.46 343.58C213.38 343.57 213.32 343.55 213.28 343.52C213.24 343.48 213.22 343.44 213.23 343.4L213.6 341.79C213.61 341.75 213.62 341.7 213.64 341.65C213.66 341.59 213.7 341.55 213.77 341.5L214.66 340.98C214.71 340.95 214.78 340.93 214.86 340.93C214.94 340.93 215 340.95 215.06 340.98L219.79 343.71C219.84 343.74 219.87 343.78 219.87 343.82C219.87 343.86 219.84 343.9 219.79 343.93L218.83 344.48C218.78 344.51 218.71 344.53 218.63 344.53C218.55 344.53 218.49 344.51 218.43 344.48L215.23 342.63L215.02 343.51C215.01 343.56 214.97 343.59 214.91 343.62C214.85 343.65 214.78 343.66 214.7 343.65L213.46 343.58Z" fill="#FAFAFA"></path><path d="M257.03 350.55L230.76 335.38C230.16 335.03 230.16 334.48 230.76 334.13L326.08 279.09C326.68 278.74 327.65 278.74 328.25 279.09L354.52 294.26C355.12 294.61 355.12 295.16 354.52 295.51L259.2 350.55C258.6 350.9 257.63 350.9 257.03 350.55Z" fill="#009FCF"></path><path d="M251.98 333.42C251.89 333.47 251.8 333.5 251.7 333.5C251.61 333.5 251.54 333.5 251.49 333.5L246.03 332.88L249.26 334.75C249.32 334.78 249.35 334.82 249.35 334.87C249.35 334.92 249.32 334.96 249.26 334.99L248.62 335.36C248.56 335.39 248.49 335.41 248.41 335.41C248.33 335.41 248.26 335.39 248.2 335.36L243.13 332.43C243.07 332.4 243.04 332.36 243.04 332.31C243.04 332.26 243.07 332.22 243.13 332.19L243.68 331.87C243.77 331.82 243.86 331.79 243.95 331.79C244.04 331.79 244.12 331.79 244.16 331.79L249.62 332.41L246.39 330.54C246.33 330.51 246.31 330.47 246.3 330.42C246.3 330.37 246.33 330.33 246.39 330.3L247.03 329.93C247.09 329.9 247.16 329.88 247.24 329.88C247.32 329.88 247.39 329.9 247.45 329.93L252.52 332.86C252.58 332.89 252.61 332.93 252.61 332.98C252.61 333.03 252.58 333.07 252.52 333.1L251.98 333.42Z" fill="#FAFAFA"></path><path d="M251.65 331.25C251.36 331.08 251.13 330.9 250.96 330.7C250.79 330.5 250.69 330.29 250.67 330.09C250.65 329.88 250.7 329.68 250.83 329.48C250.96 329.28 251.17 329.09 251.46 328.92C251.75 328.75 252.07 328.63 252.42 328.55C252.77 328.47 253.11 328.44 253.46 328.45C253.81 328.46 254.15 328.51 254.48 328.59C254.82 328.68 255.12 328.8 255.38 328.95L255.73 329.15C255.79 329.18 255.82 329.22 255.82 329.27C255.82 329.32 255.79 329.36 255.73 329.39L253.11 330.9C253.23 330.97 253.36 331.02 253.5 331.04C253.64 331.06 253.79 331.07 253.93 331.06C254.08 331.05 254.22 331.02 254.36 330.97C254.5 330.92 254.63 330.87 254.74 330.8C254.91 330.7 255.03 330.62 255.1 330.54C255.17 330.46 255.21 330.38 255.23 330.32C255.25 330.26 255.27 330.22 255.29 330.19C255.31 330.16 255.35 330.13 255.42 330.09L256.05 329.73C256.11 329.7 256.18 329.68 256.26 329.68C256.35 329.68 256.42 329.7 256.47 329.73C256.54 329.77 256.59 329.85 256.63 329.96C256.67 330.07 256.67 330.2 256.63 330.35C256.59 330.5 256.5 330.66 256.35 330.84C256.2 331.02 255.99 331.19 255.69 331.35C255.4 331.52 255.08 331.64 254.74 331.72C254.4 331.8 254.05 331.83 253.7 331.82C253.34 331.81 252.99 331.75 252.64 331.66C252.3 331.57 251.97 331.43 251.65 331.25ZM252.4 329.46C252.25 329.55 252.14 329.64 252.08 329.72C252.02 329.81 251.98 329.89 251.98 329.98C251.98 330.06 252 330.14 252.05 330.21C252.1 330.28 252.15 330.34 252.22 330.4L253.99 329.38C253.9 329.34 253.8 329.3 253.69 329.27C253.57 329.24 253.45 329.22 253.31 329.22C253.17 329.22 253.03 329.23 252.88 329.27C252.73 329.3 252.57 329.37 252.4 329.46Z" fill="#FAFAFA"></path><path d="M260.62 326.53L259.08 324.83C259.05 324.8 259.03 324.76 259.02 324.72C259.01 324.68 259.04 324.64 259.11 324.6L259.71 324.26C259.77 324.23 259.84 324.21 259.92 324.21C260 324.21 260.07 324.23 260.13 324.26C260.15 324.27 260.17 324.28 260.18 324.3L262.61 327.07C262.64 327.11 262.66 327.15 262.67 327.19C262.68 327.23 262.65 327.27 262.58 327.32L261.98 327.66C261.91 327.7 261.83 327.72 261.76 327.71C261.69 327.7 261.62 327.69 261.55 327.68L258.69 326.91L260.02 328.56C260.05 328.6 260.07 328.64 260.08 328.68C260.09 328.72 260.06 328.76 259.99 328.8L259.39 329.14C259.32 329.18 259.24 329.2 259.17 329.19C259.1 329.18 259.03 329.17 258.97 329.15L254.17 327.75C254.15 327.74 254.13 327.74 254.11 327.72C254.05 327.69 254.02 327.65 254.02 327.6C254.02 327.55 254.05 327.51 254.1 327.48L254.7 327.14C254.77 327.1 254.85 327.08 254.92 327.09C254.99 327.1 255.05 327.11 255.11 327.12L258.06 328.01L256.57 326.28C256.54 326.25 256.52 326.21 256.52 326.16C256.52 326.11 256.54 326.07 256.6 326.04L257.2 325.7C257.26 325.67 257.33 325.65 257.41 325.65C257.49 325.65 257.56 325.66 257.61 325.68L260.62 326.53Z" fill="#FAFAFA"></path><path d="M264.17 324.03C263.88 323.86 263.65 323.68 263.48 323.48C263.31 323.28 263.21 323.07 263.19 322.87C263.17 322.66 263.22 322.46 263.35 322.26C263.48 322.06 263.69 321.87 263.98 321.7C264.27 321.53 264.59 321.41 264.94 321.33C265.29 321.25 265.63 321.22 265.98 321.23C266.33 321.24 266.67 321.29 267 321.37C267.33 321.46 267.64 321.58 267.9 321.73L268.25 321.93C268.31 321.96 268.34 322 268.34 322.05C268.34 322.1 268.31 322.14 268.25 322.17L265.63 323.68C265.75 323.75 265.88 323.8 266.02 323.82C266.16 323.84 266.31 323.85 266.45 323.84C266.6 323.83 266.74 323.8 266.88 323.75C267.02 323.7 267.15 323.65 267.26 323.58C267.43 323.48 267.55 323.4 267.62 323.32C267.69 323.24 267.73 323.16 267.75 323.1C267.77 323.04 267.78 323 267.81 322.97C267.83 322.94 267.87 322.91 267.93 322.87L268.56 322.51C268.62 322.48 268.69 322.46 268.77 322.46C268.86 322.46 268.93 322.48 268.98 322.51C269.05 322.56 269.1 322.63 269.14 322.74C269.18 322.85 269.18 322.98 269.14 323.13C269.1 323.28 269.01 323.44 268.86 323.62C268.72 323.79 268.5 323.96 268.2 324.13C267.91 324.3 267.59 324.42 267.25 324.5C266.91 324.58 266.56 324.61 266.21 324.6C265.85 324.59 265.5 324.53 265.15 324.43C264.81 324.35 264.49 324.21 264.17 324.03ZM264.92 322.24C264.77 322.33 264.66 322.41 264.6 322.5C264.54 322.59 264.5 322.67 264.5 322.76C264.5 322.84 264.52 322.92 264.57 322.99C264.62 323.06 264.67 323.12 264.74 323.18L266.51 322.16C266.42 322.12 266.32 322.08 266.21 322.05C266.09 322.02 265.97 322 265.83 322C265.69 322 265.55 322.01 265.4 322.05C265.24 322.07 265.08 322.14 264.92 322.24Z" fill="#FAFAFA"></path><path d="M268.25 319.77C268.22 319.61 268.26 319.45 268.36 319.31C268.46 319.16 268.6 319.03 268.79 318.92C269.12 318.73 269.45 318.61 269.78 318.56C270.11 318.51 270.44 318.51 270.76 318.55C270.72 318.45 270.71 318.35 270.73 318.24C270.75 318.13 270.78 318.03 270.84 317.93C270.89 317.83 270.97 317.74 271.06 317.65C271.15 317.56 271.26 317.49 271.37 317.42C271.67 317.25 271.97 317.13 272.26 317.08C272.56 317.02 272.85 317.01 273.14 317.03C273.43 317.06 273.71 317.12 273.98 317.22C274.25 317.32 274.51 317.44 274.76 317.58L276.87 318.8C276.93 318.83 276.96 318.87 276.96 318.92C276.96 318.97 276.93 319.01 276.87 319.04L276.27 319.38C276.21 319.41 276.14 319.43 276.06 319.43C275.98 319.43 275.91 319.41 275.85 319.38L273.78 318.18C273.42 317.97 273.11 317.87 272.83 317.87C272.55 317.87 272.29 317.94 272.05 318.08C271.84 318.2 271.73 318.34 271.72 318.51C271.71 318.67 271.86 318.86 272.19 319.06L274.3 320.28C274.36 320.31 274.39 320.35 274.39 320.4C274.39 320.45 274.36 320.49 274.3 320.52L273.7 320.86C273.64 320.89 273.57 320.91 273.49 320.91C273.41 320.91 273.34 320.89 273.28 320.86L271.21 319.66C270.85 319.45 270.54 319.35 270.26 319.35C269.98 319.35 269.72 319.42 269.47 319.56C269.26 319.68 269.14 319.83 269.14 320C269.13 320.17 269.3 320.36 269.65 320.56L271.72 321.76C271.78 321.79 271.81 321.83 271.81 321.88C271.81 321.93 271.78 321.97 271.72 322L271.12 322.34C271.06 322.37 270.99 322.39 270.91 322.39C270.83 322.39 270.76 322.37 270.7 322.34L267.04 320.23C266.98 320.2 266.95 320.16 266.95 320.11C266.95 320.06 266.98 320.02 267.04 319.99L267.64 319.65C267.7 319.62 267.77 319.6 267.85 319.6C267.93 319.6 268 319.62 268.06 319.65L268.25 319.77Z" fill="#FAFAFA"></path><path d="M275.06 316.55C274.97 316.47 274.9 316.38 274.85 316.26C274.8 316.14 274.79 316.01 274.82 315.87C274.85 315.73 274.93 315.58 275.06 315.42C275.19 315.26 275.39 315.11 275.66 314.95C275.93 314.8 276.2 314.68 276.49 314.59C276.78 314.51 277.06 314.46 277.35 314.45C277.64 314.44 277.93 314.47 278.22 314.54C278.51 314.61 278.79 314.72 279.05 314.88L281.36 316.21C281.42 316.24 281.45 316.28 281.45 316.33C281.45 316.38 281.42 316.42 281.36 316.45L280.76 316.79C280.7 316.82 280.63 316.84 280.55 316.84C280.47 316.84 280.4 316.82 280.34 316.79L280.08 316.64C280.12 316.79 280.09 316.96 279.99 317.14C279.89 317.32 279.68 317.5 279.36 317.69C279.13 317.82 278.9 317.92 278.66 317.99C278.42 318.06 278.19 318.09 277.96 318.1C277.73 318.11 277.51 318.09 277.29 318.04C277.08 317.99 276.88 317.92 276.7 317.81C276.34 317.6 276.19 317.36 276.24 317.1C276.29 316.83 276.5 316.56 276.85 316.27L277.91 315.4C277.7 315.28 277.47 315.23 277.24 315.26C277.01 315.29 276.79 315.37 276.58 315.49C276.45 315.57 276.37 315.63 276.33 315.7C276.29 315.76 276.27 315.83 276.27 315.91C276.27 315.96 276.25 316 276.23 316.03C276.21 316.06 276.17 316.09 276.12 316.12L275.39 316.54C275.34 316.57 275.28 316.59 275.21 316.59C275.15 316.6 275.1 316.58 275.06 316.55ZM278.58 317.07C278.76 316.97 278.89 316.86 278.98 316.75C279.07 316.64 279.12 316.54 279.13 316.43C279.14 316.33 279.12 316.23 279.06 316.14C279 316.05 278.92 315.98 278.81 315.91L278.73 315.86L277.85 316.59C277.67 316.73 277.57 316.86 277.55 316.95C277.53 317.04 277.58 317.13 277.7 317.2C277.81 317.26 277.95 317.28 278.11 317.24C278.27 317.21 278.43 317.15 278.58 317.07Z" fill="#FAFAFA"></path><path d="M277.89 312.03C277.95 312 278.02 311.98 278.1 311.98C278.18 311.98 278.25 312 278.31 312.03L278.92 312.38C278.98 312.41 279.01 312.45 279.01 312.5C279.01 312.55 278.98 312.59 278.92 312.62L278.25 313.01C278.19 313.04 278.12 313.06 278.04 313.06C277.96 313.06 277.89 313.04 277.83 313.01L277.22 312.66C277.16 312.63 277.13 312.59 277.13 312.54C277.13 312.49 277.16 312.45 277.22 312.42L277.89 312.03ZM283.42 315.02C283.48 315.05 283.51 315.09 283.51 315.14C283.51 315.19 283.48 315.23 283.42 315.26L282.82 315.6C282.76 315.63 282.69 315.65 282.61 315.65C282.53 315.65 282.45 315.63 282.4 315.6L278.74 313.49C278.68 313.46 278.65 313.42 278.65 313.37C278.65 313.32 278.68 313.28 278.74 313.25L279.34 312.91C279.4 312.88 279.47 312.86 279.55 312.86C279.63 312.86 279.7 312.88 279.76 312.91L283.42 315.02Z" fill="#FAFAFA"></path><path d="M285.52 313.81C285.58 313.84 285.61 313.88 285.61 313.93C285.61 313.98 285.58 314.02 285.52 314.05L284.92 314.39C284.86 314.42 284.79 314.44 284.71 314.44C284.63 314.44 284.55 314.42 284.5 314.39L279.35 311.42C279.29 311.39 279.26 311.35 279.26 311.3C279.26 311.25 279.29 311.21 279.35 311.18L279.95 310.84C280.01 310.81 280.08 310.79 280.16 310.79C280.24 310.79 280.31 310.81 280.37 310.84L285.52 313.81Z" fill="#FAFAFA"></path><path d="M254.39 337.64L332.16 292.74C333.12 292.19 334.52 292.1 335.29 292.55C336.06 293 335.91 293.8 334.95 294.36L257.17 339.27C256.21 339.82 254.81 339.91 254.05 339.46C253.28 339.01 253.44 338.2 254.39 337.64Z" fill="#FAFAFA"></path><path d="M259.85 340.8L337.62 295.9C338.58 295.35 339.98 295.26 340.75 295.71C341.52 296.16 341.37 296.96 340.41 297.52L262.63 342.43C261.67 342.98 260.27 343.07 259.51 342.62C258.75 342.16 258.9 341.35 259.85 340.8Z" fill="#FAFAFA"></path><path d="M144.38 369.94L103.76 346.49L285.72 241.43L327.17 264.41L144.38 369.94Z" fill="#E0E0E0"></path><path d="M133.39 223.73L306.45 123.82L313.38 127.82C315.17 128.85 316.64 131.39 316.64 133.46V261.12C316.64 263.19 315.18 265.72 313.38 266.76L146.83 362.92C145.04 363.95 142.11 363.95 140.32 362.92L136.65 360.8C134.86 359.77 133.39 357.23 133.39 355.16V223.73Z" fill="#009FCF"></path><path opacity="0.2" d="M133.39 223.73L306.45 123.82L313.38 127.82C315.17 128.85 316.64 131.39 316.64 133.46V261.12C316.64 263.19 315.18 265.72 313.38 266.76L146.83 362.92C145.04 363.95 142.11 363.95 140.32 362.92L136.65 360.8C134.86 359.77 133.39 357.23 133.39 355.16V223.73Z" fill="black"></path><path d="M305.49 112.59L306.2 112.21L303.51 110.65C303.28 110.52 303.04 110.4 302.8 110.31L226.64 82.0899C224.62 81.3399 222.01 82.1799 220.79 83.9499L135.59 208.37C134.38 210.14 133.39 213.32 133.39 215.47C133.39 219.03 133.39 223.73 133.39 223.73L136.03 225.26L306.45 123.81V115.55C306.45 114.54 306.08 113.5 305.49 112.59Z" fill="#009FCF"></path><path opacity="0.1" d="M224.31 84.54C223.97 84.8 223.67 85.12 223.43 85.47L138.23 209.88C137.61 210.8 137.04 212.1 136.65 213.44L134 211.91C134.19 211.26 134.43 210.63 134.69 210.03C134.7 210 134.7 209.99 134.72 209.98C134.84 209.72 134.95 209.47 135.08 209.23C135.11 209.19 135.12 209.15 135.14 209.11C135.28 208.84 135.44 208.58 135.59 208.36L220.78 83.95C220.91 83.76 221.05 83.6 221.21 83.43C221.35 83.29 221.51 83.14 221.66 83.01L224.31 84.54Z" fill="black"></path><path opacity="0.35" d="M306.17 112.19C305.94 112.05 305.69 111.93 305.44 111.84L229.27 83.6099C227.66 83.0099 225.66 83.4299 224.31 84.5399L221.66 83.0099C223.02 81.9099 225.01 81.4799 226.63 82.0799L302.79 110.3C303.04 110.39 303.27 110.51 303.5 110.65L306.17 112.19Z" fill="white"></path><path d="M135.14 209.11C135.29 208.84 135.44 208.59 135.59 208.36C135.43 208.59 135.28 208.84 135.14 209.11Z" fill="#009FCF"></path><path d="M221.22 83.43C221.36 83.28 221.52 83.15 221.68 83.02C221.51 83.14 221.36 83.28 221.22 83.43Z" fill="#009FCF"></path><path d="M133.99 211.92C134.19 211.27 134.42 210.63 134.68 210.03C134.42 210.63 134.19 211.27 133.99 211.92Z" fill="#009FCF"></path><path d="M134.71 209.98C134.83 209.72 134.95 209.47 135.08 209.24C134.95 209.47 134.82 209.72 134.71 209.98Z" fill="#009FCF"></path><path opacity="0.2" d="M134.69 210.03C134.7 210.01 134.7 209.99 134.71 209.98C134.7 210 134.69 210.01 134.69 210.03Z" fill="black"></path><path opacity="0.2" d="M135.07 209.23C135.09 209.19 135.11 209.15 135.13 209.11C135.11 209.15 135.09 209.19 135.07 209.23Z" fill="black"></path><path opacity="0.2" d="M220.79 83.9399C220.92 83.7599 221.06 83.5899 221.22 83.4299C221.06 83.5899 220.91 83.7599 220.79 83.9399Z" fill="black"></path><path d="M223.43 85.4801L138.23 209.9C137.02 211.67 136.03 214.85 136.03 217C136.03 220.56 136.03 225.26 136.03 225.26L309.09 125.34V117.08C309.09 114.93 307.46 112.58 305.44 111.84L229.28 83.6201C227.26 82.8701 224.64 83.7001 223.43 85.4801Z" fill="#009FCF"></path><path opacity="0.05" d="M309.09 117.08C309.09 116.09 308.73 115.07 308.17 114.17L136.65 213.44C136.65 213.44 136.64 213.45 136.63 213.47C136.26 214.7 136.03 215.96 136.03 216.99C136.03 220.55 136.03 225.25 136.03 225.25L309.09 125.33V117.08Z" fill="black"></path><path d="M301.7 82.0099C301.7 81.1199 301.39 80.4899 300.89 80.1999C300.38 79.8999 296.12 77.4399 295.61 77.1499C295.1 76.8599 294.4 76.8999 293.62 77.3499L151.67 159.3C150.12 160.2 148.86 162.37 148.86 164.17V334.17C148.86 335.07 149.17 335.69 149.68 335.99C150.19 336.28 154.44 338.74 154.95 339.03C155.46 339.32 156.16 339.28 156.94 338.83L298.89 256.88C300.44 255.98 301.7 253.81 301.7 252.01V82.0099Z" fill="#009FCF"></path><path opacity="0.95" d="M301.7 82.0099C301.7 81.1199 301.39 80.4899 300.89 80.1999C300.38 79.8999 296.12 77.4399 295.61 77.1499C295.1 76.8599 294.4 76.8999 293.62 77.3499L151.67 159.3C150.12 160.2 148.86 162.37 148.86 164.17V334.17C148.86 335.07 149.17 335.69 149.68 335.99C150.19 336.28 154.44 338.74 154.95 339.03C155.46 339.32 156.16 339.28 156.94 338.83L298.89 256.88C300.44 255.98 301.7 253.81 301.7 252.01V82.0099Z" fill="white"></path><path d="M156.94 338.83L298.89 256.88C300.44 255.98 301.7 253.81 301.7 252.01V82.0101C301.7 80.2201 300.44 79.49 298.89 80.39L156.94 162.34C155.39 163.24 154.13 165.41 154.13 167.21V337.21C154.13 339 155.39 339.72 156.94 338.83Z" fill="#009FCF"></path><path opacity="0.8" d="M156.94 338.83L298.89 256.88C300.44 255.98 301.7 253.81 301.7 252.01V82.0101C301.7 80.2201 300.44 79.49 298.89 80.39L156.94 162.34C155.39 163.24 154.13 165.41 154.13 167.21V337.21C154.13 339 155.39 339.72 156.94 338.83Z" fill="white"></path><path d="M154.13 337.2C154.13 337.99 154.38 338.58 154.79 338.91C153.84 338.38 150.16 336.24 149.69 335.98C149.17 335.68 148.86 335.06 148.86 334.16V164.16C148.86 163.26 149.17 162.28 149.69 161.4L154.96 164.44C154.44 165.32 154.13 166.32 154.13 167.22V337.2Z" fill="#009FCF"></path><path opacity="0.7" d="M154.13 337.2C154.13 337.99 154.38 338.58 154.79 338.91C153.84 338.38 150.16 336.24 149.69 335.98C149.17 335.68 148.86 335.06 148.86 334.16V164.16C148.86 163.26 149.17 162.28 149.69 161.4L154.96 164.44C154.44 165.32 154.13 166.32 154.13 167.22V337.2Z" fill="white"></path><path opacity="0.05" d="M154.13 337.2C154.13 337.99 154.38 338.58 154.79 338.91C153.84 338.38 150.16 336.24 149.69 335.98C149.17 335.68 148.86 335.06 148.86 334.16V164.16C148.86 163.26 149.17 162.28 149.69 161.4L154.96 164.44C154.44 165.32 154.13 166.32 154.13 167.22V337.2Z" fill="black"></path><path d="M205.93 208.72C205.3 224.53 206.37 258.42 206.37 258.42C206.37 258.42 223.13 263.49 234.53 261.6C245.93 259.71 270.3 242.45 270.3 242.45L266.24 205.77L205.93 208.72Z" fill="#37474F"></path><path d="M244.85 257.85L247.57 232.02C258.25 225.65 261.73 216.83 261.73 216.83C252.01 229.56 241.86 227.5 241.86 227.5V259.22C242.84 258.8 243.84 258.34 244.85 257.85Z" fill="#263238"></path><path d="M272.93 161.08C275.64 147.32 276.88 129.02 264.9 125.67C261.78 124.8 253.84 125.4 253.84 125.4L240.93 126.04C233.74 126.96 223.66 128.39 221.01 129.04C214.07 130.75 212.02 142.08 208.91 167.18C206.96 182.9 205.31 195.17 205.31 210.47C217.99 221.84 257.64 217.36 266.66 209.97C267.03 192.62 267.98 186.19 272.93 161.08Z" fill="#455A64"></path><path d="M238.74 121.35C238.62 123.86 241.51 128.11 245.93 131.08C250.36 134.06 254.17 135.26 254.65 136.51C252.55 136.9 250.65 137.95 249.09 141.55C247.6 144.99 247.61 145.1 242.5 141.55C237.39 138 232.82 129.84 232.83 127.12C232.84 124.4 236.85 119.15 238.81 119.59L238.74 121.35Z" fill="#37474F"></path><path d="M254.66 136.51C256.16 134.88 257.57 130.77 257.76 128.99C257.94 127.21 258.41 122.55 258.41 122.55C258.41 122.55 259.63 122.86 260.18 123.7C260.73 124.53 263.45 130.15 263.36 133.29C263.27 136.43 262.54 140.67 261.48 142.46C260.42 144.25 259.71 141.09 259.02 139.87C258.11 138.28 256.88 136.55 254.66 136.51Z" fill="#37474F"></path><path d="M252.64 140.11C252.64 140.11 252.89 151.44 251.84 157.47C251.84 157.47 255.25 158.1 258.58 157.29C258.58 157.29 256.85 159.42 250.51 158.44C250.52 158.44 252.47 146.61 252.64 140.11Z" fill="#37474F"></path><path d="M279.47 87.7699C279.32 77.8399 271.15 69.8999 261.22 70.0499C251.93 70.1899 244.39 77.3499 243.57 86.3999L235.4 80.5899C235.4 80.5899 232.42 80.1199 230.14 82.5299C227.9 84.8899 229.28 92.1299 232.21 99.2099C232.21 99.2099 235.16 112.13 236.3 114.24C237.44 116.35 239.73 116.92 239.73 116.92L239.45 109.06L272.12 106.71L268.89 104.41C275.22 101.56 279.58 95.1599 279.47 87.7699Z" fill="#263238"></path><path d="M238.98 99.7199C237.95 100.36 237 98.1699 235.13 97.0499C233.53 96.0999 229.94 94.4299 227.58 98.3899C225.03 102.66 229.66 108.56 232.9 109.78C237.7 111.58 239.42 107.82 239.42 107.82L238.43 127.82C244.96 139.72 264.36 138.96 257.77 128.99L258.56 121.28C258.56 121.28 263.73 121.99 266.24 121.56C270.42 120.85 273 117.51 274.2 112.96C276.13 105.65 276.82 99.7699 274.88 85.4799C272.75 69.8199 254.51 69.9299 244.75 76.2799C234.97 82.6199 238.98 99.7199 238.98 99.7199Z" fill="#FFA8A7"></path><path d="M278.85 70.8599C277.52 70.1399 275.92 70.0799 274.44 70.3499C274.77 68.0999 273.25 65.89 271.24 64.98C268.81 63.88 266.62 64.2699 264.48 65.8799C264.92 64.2899 263.48 62.6699 261.86 62.3199C260.25 61.9699 258.59 62.5199 257.05 63.1099C254.76 63.9899 252.5 64.9599 250.17 65.7399C246.06 67.1099 241.69 67.9 237.98 70.1199C237.1 70.65 236.26 71.2599 235.66 72.0899C234.82 73.2499 234.55 74.7399 234.61 76.1699C234.63 76.6499 234.71 77.1099 234.81 77.5699C234.53 77.2699 234.21 76.9999 233.84 76.8099C232.09 75.8999 229.96 76.6399 229.09 78.4599L235.28 81.66C235.13 82.91 234.97 84.1499 234.85 85.3999C234.52 88.6999 233.88 92.5399 234.62 95.8199C234.7 96.1899 234.77 96.6199 235.02 96.9199C235.02 96.9199 236.62 98.0799 238.24 100.05C238.72 100.63 239.3 101.57 240.07 101.8C240.84 102.03 241.94 101.59 242.21 100.82C242.37 100.36 242.33 99.8499 242.28 99.3599C242.08 97.3299 241.88 95.2899 241.68 93.2599C241.63 92.7199 241.58 92.1499 241.78 91.6399C242.05 90.9599 242.71 90.5299 243.27 90.0599C244.69 88.8499 245.59 87.0399 245.7 85.1699C245.73 84.5799 245.7 83.9799 245.86 83.4199C245.99 82.9899 246.33 82.3199 246.82 82.3199C247.77 82.3199 252.95 83.4399 254.25 83.6199C261.03 84.5499 268.31 84.7299 274.28 81.3999C276.61 80.1099 280.53 77.4199 280.94 74.5399C281.15 73.0799 280.18 71.5799 278.85 70.8599Z" fill="#263238"></path><path d="M258.55 121.28C258.55 121.28 249.18 119.54 245.89 117.85C243.69 116.72 241.86 114.73 241.31 113.45C241.31 113.45 241.96 116.21 243.95 118.68C246.38 121.7 258.29 123.77 258.29 123.77L258.55 121.28Z" fill="#F28F8F"></path><path d="M258.15 98.0301C258.16 99.0401 257.39 99.8601 256.42 99.8701C255.45 99.8801 254.65 99.0801 254.64 98.0701C254.63 97.0601 255.4 96.2401 256.37 96.2301C257.34 96.2201 258.14 97.0301 258.15 98.0301Z" fill="#263238"></path><path d="M254.74 91.49L250.62 93.49C250.09 92.31 250.58 90.91 251.72 90.35C252.86 89.8 254.21 90.31 254.74 91.49Z" fill="#263238"></path><path d="M254.79 109L262.23 111.67C261.53 113.8 259.3 114.93 257.24 114.2C255.18 113.45 254.08 111.13 254.79 109Z" fill="#B16668"></path><path d="M259.48 114.28C259.19 112.17 257.25 110.69 255.14 110.97C254.97 110.99 254.82 111.04 254.66 111.08C254.92 112.47 255.85 113.69 257.23 114.18C257.99 114.46 258.76 114.47 259.48 114.28Z" fill="#F28F8F"></path><path d="M274.24 92.8501L270.27 90.7801C270.81 89.6901 272.13 89.2701 273.23 89.8401C274.33 90.4101 274.78 91.7601 274.24 92.8501Z" fill="#263238"></path><path d="M272.22 97.7401C272.23 98.7501 271.46 99.5701 270.49 99.5801C269.52 99.5901 268.72 98.7901 268.71 97.7801C268.69 96.7701 269.47 95.9501 270.44 95.9401C271.41 95.9201 272.21 96.7301 272.22 97.7401Z" fill="#263238"></path><path d="M263.27 96.6501L263.62 108L270.31 106.44L263.27 96.6501Z" fill="#F28F8F"></path><path d="M312.24 262.81C312.19 262.9 312.14 262.98 312.06 263.07L239.94 240.2C234.28 237.68 227.65 239.73 224.36 245L147.26 359.59L144.41 361.24L144.38 361.25C143.52 361.73 142.74 361.79 142.17 361.5L221.46 243.39C224.75 238.13 231.39 236.08 237.06 238.58L312.24 262.81Z" fill="#009FCF"></path><path opacity="0.4" d="M217.26 256.25L217.44 256.09L147.26 359.59L144.41 361.24L144.38 361.25C143.52 361.73 142.75 361.78 142.17 361.5L214.48 254.59L217.26 256.25Z" fill="white"></path><path opacity="0.4" d="M312.24 262.82C312.19 262.91 312.14 262.99 312.06 263.08L239.93 240.2C234.27 237.68 227.64 239.73 224.35 245L221.5 243.34C224.8 238.1 231.41 236.07 237.07 238.57L312.24 262.82Z" fill="white"></path><path d="M316.57 132.63H316.56C316.4 131.7 315.91 131.44 315.28 131.88C315.03 132.05 314.75 132.33 314.45 132.74L314.09 133.25L242.92 241.44L232.29 256.24C231.1 257.93 228.48 258.9 226.44 258.43L217.27 256.25L147.25 230.47C146.74 230.35 146.26 230.34 145.82 230.42C145.64 230.46 145.46 230.51 145.29 230.59L147.93 229.06L215.06 253.66L223.9 256.81C225.92 257.29 228.55 256.32 229.75 254.62L240.38 239.83L311.9 131.13C312.13 130.81 312.42 130.57 312.7 130.39L306.51 126.82L309.1 125.33L313.38 127.8C314.93 128.72 316.24 130.75 316.57 132.63Z" fill="#009FCF"></path><path opacity="0.4" d="M242.91 241.43L232.28 256.23C231.09 257.92 228.47 258.89 226.43 258.42L217.26 256.24L217.44 256.08L217.88 255.38L223.89 256.81C225.91 257.29 228.53 256.32 229.74 254.62L240.26 239.98L242.91 241.43Z" fill="white"></path><path opacity="0.1" d="M313.37 127.8L309.09 125.33L306.5 126.82L312.69 130.39C312.69 130.39 312.7 130.4 312.71 130.4L312.7 130.39C312.39 130.59 312.11 130.83 311.9 131.13L240.38 239.82L240.28 239.96V239.97L242.93 241.41L314.1 133.22L314.46 132.71C314.76 132.31 315.04 132.02 315.29 131.85C315.93 131.41 316.42 131.67 316.57 132.6H316.58C316.24 130.75 314.93 128.71 313.37 127.8Z" fill="black"></path><path d="M148.66 232.55L133.39 223.73V355.15C133.39 357.22 134.85 359.75 136.65 360.79L140.32 362.91C142.11 363.94 145.04 363.94 146.83 362.91L148.66 361.85V232.55Z" fill="#009FCF"></path><path opacity="0.15" d="M148.66 232.55L133.39 223.73V355.15C133.39 357.22 134.85 359.75 136.65 360.79L140.32 362.91C142.11 363.94 145.04 363.94 146.83 362.91L148.66 361.85V232.55Z" fill="black"></path><path d="M316.63 133.45V261.11C316.63 262.19 316.24 263.37 315.62 264.41C315.1 265.27 314.45 266.03 313.71 266.55L313.58 266.61C313.5 266.66 313.45 266.71 313.37 266.75L146.83 362.89L146.8 362.9C145.93 363.39 145.15 363.46 144.58 363.16C144.07 362.9 143.72 362.37 143.61 361.6C143.58 361.42 143.57 361.22 143.57 361.02V233.36C143.57 231.3 145.19 230 147.23 230.48L217.25 256.26L226.42 258.44C228.46 258.91 231.08 257.93 232.27 256.25L242.9 241.45L314.07 133.26L314.43 132.75C315.65 131.06 316.63 131.38 316.63 133.45Z" fill="#009FCF"></path><path d="M313.38 266.75C313.46 266.71 313.52 266.66 313.59 266.61L313.71 266.53C314.45 266.02 315.1 265.25 315.61 264.4C316.23 263.38 316.61 262.21 316.62 261.16L242.91 241.43L292.27 278.92L313.38 266.75Z" fill="#009FCF"></path><path opacity="0.2" d="M313.38 266.75C313.46 266.71 313.52 266.66 313.59 266.61L313.71 266.53C314.45 266.02 315.1 265.25 315.61 264.4C316.23 263.38 316.61 262.21 316.62 261.16L242.91 241.43L292.27 278.92L313.38 266.75Z" fill="black"></path><path d="M143.57 361.02C143.57 362.1 143.96 362.84 144.58 363.16C145.16 363.46 145.93 363.4 146.8 362.91L146.83 362.9L204.17 329.8L217.26 256.25L143.58 358.9L143.57 361.02Z" fill="#009FCF"></path><path opacity="0.15" d="M224.33 244.99L144.59 363.16C143.97 362.84 143.58 362.1 143.58 361.02V358.9L221.48 243.38C221.48 243.37 221.49 243.35 221.51 243.34L224.33 244.99Z" fill="black"></path><path d="M315.62 264.41C315.11 265.26 314.45 266.03 313.72 266.54L313.6 266.62L146.83 362.9L146.8 362.91C145.94 363.4 145.16 363.46 144.58 363.16L224.33 244.96C227.64 239.68 234.31 237.63 240.01 240.15L315.62 264.41Z" fill="#009FCF"></path><path opacity="0.15" d="M134 211.92L136.65 213.45C136.27 214.7 136.04 215.97 136.04 217.01C136.04 220.56 136.04 225.26 136.04 225.26L133.39 223.73C133.39 223.73 133.39 219.02 133.39 215.47C133.39 214.43 133.62 213.16 134 211.92Z" fill="black"></path><path d="M147.92 229.07L145.28 230.59L142.6 229.05L136.03 225.26L138.58 223.74L147.92 229.07Z" fill="#009FCF"></path><path opacity="0.1" d="M148.03 229.12L138.58 223.75L136.02 225.27L142.6 229.06L145.27 230.6L145.3 230.58C145.46 230.51 145.63 230.46 145.8 230.42C146.24 230.34 146.72 230.36 147.23 230.47L152.55 232.43L213.68 254.93L214.64 253.51L148.03 229.12Z" fill="black"></path><path d="M221.02 129.03C212.54 129.64 206.72 131.66 201.25 144.8C197.71 153.29 183.86 183.81 182.52 188.86C180.94 194.79 177.4 239.81 177.4 239.81L185.5 242.85C185.5 242.85 182.73 252.54 180.38 258.08C177.68 264.46 190.87 263.12 195.1 257.32C199.35 251.5 202.22 243.75 199.91 241.03C196.85 237.43 193.48 235.08 193.48 235.08L202.34 194.91L220.93 155.39C220.93 155.39 230.26 135.96 221.02 129.03Z" fill="#FFA8A7"></path><path d="M193.48 235.08C189.15 232.63 185.26 232.74 185.26 232.74C185.26 232.74 189.52 231.37 193.86 232.74L193.48 235.08Z" fill="#F28F8F"></path><path d="M222.94 128.64C218.17 128.6 209.28 128.39 203.53 138.79C197.77 149.19 189.63 168.96 189.63 168.96C189.63 168.96 193.02 177.29 211.13 179.03L225.01 149.5C225.01 149.49 228.39 135.94 222.94 128.64Z" fill="#37474F"></path><path d="M284.42 135.46C291.58 141.1 303.2 149.98 308.85 153.53C313.12 148.36 320.98 137.91 322.89 135.62C325.31 132.71 332.97 127.95 332.97 127.95L335.86 139.55C335.86 139.55 321.35 166.32 316.09 171.28C310.55 176.5 306.54 174.34 295.71 169.37C285.48 164.68 274.37 158.87 274.37 158.87C276.57 139.41 275.08 128.87 265.78 125.59C272.02 126.36 278.41 130.73 284.42 135.46Z" fill="#FFA8A7"></path><path d="M303.11 149.62C299.37 150.65 291.64 161.65 293.05 168.61L273.35 158.87C275.74 145.44 276.25 128.84 264.91 125.66C264.07 125.42 262.88 125.3 261.59 125.24C267.24 124.68 270.93 124.84 276.85 129.29C282.76 133.75 303.11 149.62 303.11 149.62Z" fill="#37474F"></path><path d="M308.85 153.53C306.03 156 305.11 160.47 304.57 162.23C304.57 162.23 303.98 157.07 307.22 152.46L308.85 153.53Z" fill="#F28F8F"></path><path d="M336.28 114.98L343.03 110.88C343.03 110.88 343.81 147.32 343.83 148.51C343.86 149.7 345.25 150.85 345.25 150.85L338.5 154.94C338.5 154.94 337.11 153.78 337.08 152.6C337.06 151.42 336.28 114.98 336.28 114.98Z" fill="#37474F"></path><path d="M343.36 126.07C343.36 126.07 345.3 126.53 346.04 129.54C346.78 132.55 347.15 138.3 345.43 140.19C343.7 142.08 341.34 142.91 339.77 142.23C336.84 140.96 337.73 135 340.08 133.63C343.84 131.44 343.39 129.02 343.39 129.02L343.36 126.07Z" fill="#FFA8A7"></path><path d="M327.97 115.09L330.93 118.7L331.46 144.4L328.45 149.42L338.5 154.94C337.62 154.18 337.17 153.4 337.08 152.6L336.38 119.71L327.97 115.09Z" fill="#455A64"></path><path d="M328.46 149.43L328.49 151.01L338.54 156.53L338.5 154.95L328.46 149.43Z" fill="#009FCF"></path><path d="M338.54 156.53L345.29 152.43L345.26 150.85L338.5 154.95L338.54 156.53Z" fill="#009FCF"></path><path opacity="0.1" d="M338.54 156.53L345.29 152.43L345.26 150.85L338.5 154.95L338.54 156.53Z" fill="black"></path><path d="M329.94 97.2601C328.63 96.9401 327.1 97.4901 325.7 99.0001L325.65 99.0501C322.86 102.03 321.57 107.62 322.76 111.52L322.78 111.59C323.4 113.61 324.56 114.79 325.92 115.03L331.76 116.44L335.34 98.5601L329.94 97.2601Z" fill="#009FCF"></path><path opacity="0.7" d="M329.94 97.2601C328.63 96.9401 327.1 97.4901 325.7 99.0001L325.65 99.0501C322.86 102.03 321.57 107.62 322.76 111.52L322.78 111.59C323.4 113.61 324.56 114.79 325.92 115.03L331.76 116.44L335.34 98.5601L329.94 97.2601Z" fill="white"></path><path opacity="0.05" d="M325.92 115.04L331.76 116.45L332.95 110.52L322.32 108.06C322.3 109.28 322.43 110.47 322.75 111.53L322.77 111.6C323.39 113.61 324.55 114.79 325.92 115.04Z" fill="black"></path><path d="M341.77 97.7601C340.29 97.4301 338.61 97.9701 337.01 99.4601C336.84 99.6101 336.67 99.7801 336.51 99.9601C336.31 100.17 336.13 100.39 335.94 100.62C335.64 101 335.35 101.4 335.08 101.82C334.59 102.59 334.15 103.44 333.79 104.33C332.8 106.72 332.28 109.44 332.34 111.97C332.37 113.25 332.55 114.48 332.89 115.6C333.62 117.99 334.95 119.43 336.53 119.85L330.97 118.57V118.56C329 118.01 327.29 116.49 326.57 114.14C326.24 113.07 326.06 111.89 326.02 110.68C325.93 108.1 326.46 105.32 327.47 102.87C327.84 101.98 328.27 101.13 328.76 100.36C329.03 99.9301 329.31 99.5301 329.62 99.1601C329.8 98.9301 329.99 98.7101 330.19 98.5001C330.35 98.3201 330.53 98.1601 330.7 98.0001C332.3 96.5901 334.27 96.1201 336.08 96.4601L336.23 96.4901C336.29 96.5101 336.36 96.5201 336.43 96.5401L341.77 97.7601Z" fill="#009FCF"></path><path opacity="0.1" d="M330.98 118.57V118.56C329.01 118.01 327.3 116.49 326.58 114.14C326.25 113.07 326.07 111.89 326.03 110.68L332.33 111.97C332.36 113.25 332.54 114.48 332.88 115.6C333.61 117.99 334.94 119.43 336.52 119.85L330.98 118.57Z" fill="black"></path><path d="M345.55 102.05C347.04 106.95 345.42 113.95 341.93 117.69C340.17 119.57 338.28 120.27 336.63 119.87C336.6 119.86 336.57 119.86 336.54 119.85C334.96 119.43 333.62 117.98 332.9 115.6C331.41 110.7 333.03 103.7 336.52 99.9502C338.26 98.0802 340.15 97.3802 341.78 97.7602C343.41 98.1302 344.8 99.5902 345.55 102.05Z" fill="#009FCF"></path><path opacity="0.2" d="M345.55 102.05C347.04 106.95 345.42 113.95 341.93 117.69C340.17 119.57 338.28 120.27 336.63 119.87C336.6 119.86 336.57 119.86 336.54 119.85C334.96 119.43 333.62 117.98 332.9 115.6C331.41 110.7 333.03 103.7 336.52 99.9502C338.26 98.0802 340.15 97.3802 341.78 97.7602C343.41 98.1302 344.8 99.5902 345.55 102.05Z" fill="black"></path><path d="M368.71 93.6001C368.71 93.6001 362.17 99.9401 359.05 113.42C358.44 116.07 358.06 118.53 357.86 120.77C357.02 129.94 359.01 135.47 359.01 135.47C354.98 130.52 350.32 125.54 344.16 122.52C340.35 120.65 336.77 119.39 336.77 119.39V119.38C335.28 119.03 334.05 117.66 333.38 115.46C332.94 114.01 332.78 112.37 332.87 110.68C332.92 109.61 333.08 108.53 333.32 107.47C333.96 104.73 335.19 102.13 336.88 100.32C338.45 98.6401 340.16 97.9401 341.65 98.2901V98.2801C341.65 98.2801 345.42 98.7201 349.66 98.7201C356.53 98.7001 362.91 96.2701 368.71 93.6001Z" fill="#009FCF"></path><path opacity="0.7" d="M368.71 93.6001C368.71 93.6001 362.17 99.9401 359.05 113.42C358.44 116.07 358.06 118.53 357.86 120.77C357.02 129.94 359.01 135.47 359.01 135.47C354.98 130.52 350.32 125.54 344.16 122.52C340.35 120.65 336.77 119.39 336.77 119.39V119.38C335.28 119.03 334.05 117.66 333.38 115.46C332.94 114.01 332.78 112.37 332.87 110.68C332.92 109.61 333.08 108.53 333.32 107.47C333.96 104.73 335.19 102.13 336.88 100.32C338.45 98.6401 340.16 97.9401 341.65 98.2901V98.2801C341.65 98.2801 345.42 98.7201 349.66 98.7201C356.53 98.7001 362.91 96.2701 368.71 93.6001Z" fill="white"></path><path opacity="0.05" d="M357.86 120.77C357.02 129.94 359.01 135.47 359.01 135.47C354.98 130.52 350.32 125.54 344.16 122.52C340.35 120.65 336.77 119.39 336.77 119.39V119.38C335.28 119.03 334.05 117.66 333.38 115.46C332.94 114.01 332.78 112.37 332.87 110.68C339.64 111.82 350.79 114.35 357.86 120.77Z" fill="black"></path><path d="M386.67 100.21C388.23 105.32 388.36 111.39 387.32 117.35C385.98 124.99 382.72 132.43 378.05 137.43C369.73 146.33 360.11 144.1 356.56 132.45C355.75 129.78 355.32 126.86 355.25 123.82C355.07 116.34 357.04 108.2 360.6 101.68C361.1 100.76 361.63 99.8802 362.2 99.0302C362.43 98.6802 362.68 98.3302 362.92 97.9902C363.27 97.5102 363.63 97.0402 364 96.5902C364.38 96.1202 364.78 95.6702 365.18 95.2302C373.5 86.3302 383.12 88.5502 386.67 100.21Z" fill="#009FCF"></path><path opacity="0.1" d="M387.32 117.35C385.98 124.99 382.72 132.43 378.05 137.43C369.73 146.33 360.11 144.1 356.56 132.45C355.75 129.78 355.32 126.86 355.25 123.82C356.39 125.12 359.5 126.52 360.14 124.68C360.22 127.39 360.6 129.99 361.31 132.33C362.33 135.68 363.9 138.15 365.85 139.49C367.51 140.63 369.4 140.89 371.46 140.26C373.46 139.65 375.56 138.21 377.54 136.09C381.51 131.84 384.42 125.48 385.84 118.86C385.84 118.87 386.63 119.21 387.32 117.35Z" fill="black"></path><path d="M385.62 101.24C387.19 106.39 387.15 112.75 385.84 118.87C384.42 125.49 381.52 131.85 377.54 136.1C375.56 138.21 373.46 139.66 371.46 140.27C369.4 140.9 367.51 140.64 365.85 139.5C363.9 138.16 362.33 135.69 361.31 132.34C360.6 130 360.21 127.4 360.14 124.69C360.11 123.66 360.12 122.62 360.18 121.57C360.28 119.74 360.5 117.87 360.84 116.02C360.91 115.64 360.99 115.26 361.06 114.88C361.19 114.25 361.33 113.62 361.49 113.01C362.03 110.89 362.72 108.81 363.55 106.84C363.56 106.82 363.57 106.79 363.58 106.77C364.13 105.46 364.75 104.2 365.42 103.01C365.9 102.15 366.41 101.33 366.95 100.55C367.17 100.22 367.4 99.9002 367.64 99.5902C367.92 99.2102 368.21 98.8502 368.51 98.4902C368.8 98.1402 369.1 97.8102 369.39 97.4902C371.37 95.3702 373.48 93.9302 375.47 93.3202C379.9 91.9602 383.7 94.9302 385.62 101.24Z" fill="#009FCF"></path><path opacity="0.3" d="M385.62 101.24C387.19 106.39 387.15 112.75 385.84 118.87C384.42 125.49 381.52 131.85 377.54 136.1C375.56 138.21 373.46 139.66 371.46 140.27C369.4 140.9 367.51 140.64 365.85 139.5C363.9 138.16 362.33 135.69 361.31 132.34C360.6 130 360.21 127.4 360.14 124.69C360.11 123.66 360.12 122.62 360.18 121.57C360.28 119.74 360.5 117.87 360.84 116.02C360.91 115.64 360.99 115.26 361.06 114.88C361.19 114.25 361.33 113.62 361.49 113.01C362.03 110.89 362.72 108.81 363.55 106.84C363.56 106.82 363.57 106.79 363.58 106.77C364.13 105.46 364.75 104.2 365.42 103.01C365.9 102.15 366.41 101.33 366.95 100.55C367.17 100.22 367.4 99.9002 367.64 99.5902C367.92 99.2102 368.21 98.8502 368.51 98.4902C368.8 98.1402 369.1 97.8102 369.39 97.4902C371.37 95.3702 373.48 93.9302 375.47 93.3202C379.9 91.9602 383.7 94.9302 385.62 101.24Z" fill="black"></path><path d="M370.96 108.84L368.2 122.77C366.19 122.64 362.81 122.49 360.14 122.61C360.15 122.26 360.16 121.92 360.18 121.57C360.28 119.74 360.5 117.87 360.84 116.02C360.91 115.64 360.99 115.26 361.06 114.88C361.19 114.25 361.33 113.62 361.49 113.01C362.03 110.89 362.72 108.81 363.55 106.84C363.56 106.82 363.57 106.79 363.58 106.77C363.7 106.48 363.83 106.19 363.96 105.91C367.11 107.65 370.96 108.84 370.96 108.84Z" fill="#009FCF"></path><g opacity="0.4"><path opacity="0.4" d="M370.96 108.84L368.2 122.77C366.19 122.64 362.81 122.49 360.14 122.61C360.15 122.26 360.16 121.92 360.18 121.57C360.28 119.74 360.5 117.87 360.84 116.02C360.91 115.64 360.99 115.26 361.06 114.88C361.19 114.25 361.33 113.62 361.49 113.01C362.03 110.89 362.72 108.81 363.55 106.84C363.56 106.82 363.57 106.79 363.58 106.77C363.7 106.48 363.83 106.19 363.96 105.91C367.11 107.65 370.96 108.84 370.96 108.84Z" fill="white"></path></g><path d="M368.73 122.57C367.28 123.01 366.06 122.1 365.46 120.14L365.44 120.08C364.5 117 365.53 112.57 367.72 110.22L367.76 110.17C368.35 109.54 368.98 109.11 369.59 108.93C371.04 108.49 372.26 109.4 372.86 111.36L372.88 111.42C373.82 114.5 372.79 118.93 370.6 121.28L370.56 121.33C369.97 121.95 369.34 122.38 368.73 122.57Z" fill="#009FCF"></path><g opacity="0.7"><path opacity="0.7" d="M368.73 122.57C367.28 123.01 366.06 122.1 365.46 120.14L365.44 120.08C364.5 117 365.53 112.57 367.72 110.22L367.76 110.17C368.35 109.54 368.98 109.11 369.59 108.93C371.04 108.49 372.26 109.4 372.86 111.36L372.88 111.42C373.82 114.5 372.79 118.93 370.6 121.28L370.56 121.33C369.97 121.95 369.34 122.38 368.73 122.57Z" fill="white"></path></g><path d="M365.36 86.7401C364.56 86.9801 363.72 86.5301 363.48 85.7401L359.23 71.8001C358.99 71.0001 359.44 70.1601 360.23 69.9201C361.03 69.6801 361.87 70.1301 362.11 70.9201L366.36 84.8601C366.61 85.6601 366.16 86.5001 365.36 86.7401Z" fill="#E0E0E0"></path><path d="M353.71 94.0101C353.21 94.1601 352.65 94.0501 352.24 93.6701L341.59 83.7201C340.98 83.1501 340.95 82.2001 341.52 81.5901C342.08 80.9801 343.04 80.9501 343.65 81.5201L354.3 91.4701C354.91 92.0401 354.94 92.9901 354.37 93.6001C354.19 93.8001 353.96 93.9401 353.71 94.0101Z" fill="#E0E0E0"></path><path d="M361 165.23C360.75 165.3 360.49 165.32 360.22 165.26C359.41 165.07 358.9 164.26 359.09 163.45L362.38 149.25C362.57 148.44 363.38 147.93 364.19 148.12C365 148.31 365.51 149.12 365.32 149.93L362.03 164.13C361.9 164.67 361.5 165.08 361 165.23Z" fill="#E0E0E0"></path><path d="M387.45 159.21C386.65 159.45 385.81 159 385.57 158.21L381.32 144.27C381.08 143.47 381.53 142.63 382.32 142.39C383.12 142.15 383.96 142.6 384.2 143.39L388.45 157.33C388.7 158.12 388.25 158.96 387.45 159.21Z" fill="#E0E0E0"></path><path d="M403.14 140.18C402.64 140.33 402.08 140.22 401.67 139.84L391.02 129.89C390.41 129.32 390.38 128.37 390.95 127.76C391.52 127.15 392.47 127.12 393.08 127.69L403.73 137.64C404.34 138.21 404.37 139.16 403.8 139.77C403.61 139.96 403.39 140.1 403.14 140.18Z" fill="#E0E0E0"></path><path d="M413.14 121.4C412.89 121.47 412.63 121.49 412.36 121.43L398.16 118.14C397.35 117.95 396.84 117.14 397.03 116.33C397.22 115.52 398.03 115.01 398.84 115.2L413.04 118.49C413.85 118.68 414.36 119.49 414.17 120.3C414.04 120.84 413.64 121.25 413.14 121.4Z" fill="#E0E0E0"></path><path d="M412.42 100.13L398.48 104.38C397.68 104.62 396.84 104.17 396.6 103.38C396.36 102.58 396.81 101.74 397.6 101.5L411.54 97.2501C412.34 97.0101 413.18 97.4601 413.42 98.2501C413.66 99.0501 413.21 99.8901 412.42 100.13Z" fill="#E0E0E0"></path><path d="M391.21 92.7301C390.71 92.8801 390.15 92.7701 389.74 92.3901C389.13 91.8201 389.1 90.8701 389.67 90.2601L399.62 79.6101C400.18 79.0001 401.14 78.9701 401.75 79.5401C402.36 80.1101 402.39 81.0601 401.82 81.6701L391.87 92.3201C391.68 92.5201 391.45 92.6601 391.21 92.7301Z" fill="#E0E0E0"></path><path d="M379.08 86.2801C378.84 86.3501 378.57 86.3701 378.3 86.3101C377.49 86.1201 376.98 85.3101 377.17 84.5001L380.46 70.3001C380.65 69.4901 381.46 68.9801 382.27 69.1701C383.08 69.3601 383.59 70.1701 383.4 70.9801L380.11 85.1801C379.99 85.7201 379.58 86.1201 379.08 86.2801Z" fill="#E0E0E0"></path><path d="M322.89 135.62C325.77 131.97 325.88 129.69 328.12 127.9C330.36 126.11 332.62 126 335.95 126.95C338.47 127.67 341.41 127.31 342.43 128.24C342.72 128.43 342.27 130.05 341.09 130.63C339.67 131.33 337.37 131.16 335.68 131.17C331.83 131.19 334.99 134.97 331.28 138.81C329.7 141.57 322.89 135.62 322.89 135.62Z" fill="#FFA8A7"></path><path d="M411.2 193.48L446.58 170.83L462.16 175.83L411.2 193.48Z" fill="#009FCF"></path><path d="M411.2 193.48L441.78 167.99L434.98 160.14L411.2 193.48Z" fill="#009FCF"></path><path d="M441.78 167.99V173.9L411.2 193.48L441.78 167.99Z" fill="#009FCF"></path><path opacity="0.25" d="M441.78 167.99V173.9L411.2 193.48L441.78 167.99Z" fill="black"></path><path d="M449.03 164.56C448.75 164.56 448.47 164.44 448.27 164.21C447.91 163.79 447.95 163.16 448.37 162.8C448.99 162.27 449.59 161.72 450.18 161.15C450.58 160.77 451.21 160.78 451.59 161.18C451.97 161.58 451.96 162.21 451.56 162.59C450.94 163.18 450.32 163.75 449.67 164.3C449.5 164.48 449.26 164.56 449.03 164.56Z" fill="#E0E0E0"></path><path d="M454.29 159.32C454.06 159.32 453.82 159.24 453.63 159.07C453.22 158.71 453.17 158.07 453.54 157.66C454.59 156.47 455.61 155.2 456.58 153.88C456.91 153.44 457.53 153.34 457.98 153.67C458.42 154 458.52 154.62 458.19 155.07C457.19 156.43 456.13 157.74 455.05 158.98C454.85 159.2 454.57 159.32 454.29 159.32ZM460.15 151.4C459.97 151.4 459.79 151.35 459.62 151.25C459.15 150.96 459.01 150.34 459.3 149.87C460.14 148.52 460.96 147.1 461.72 145.66C461.98 145.17 462.58 144.99 463.07 145.24C463.56 145.5 463.75 146.1 463.49 146.59C462.7 148.08 461.87 149.54 460.99 150.93C460.81 151.23 460.49 151.4 460.15 151.4ZM464.76 142.69C464.63 142.69 464.49 142.66 464.36 142.61C463.86 142.39 463.63 141.8 463.85 141.29C464.5 139.82 465.11 138.3 465.67 136.78C465.86 136.26 466.43 136 466.95 136.18C467.47 136.37 467.74 136.94 467.55 137.46C466.98 139.03 466.35 140.59 465.68 142.1C465.51 142.46 465.14 142.69 464.76 142.69ZM468.14 133.42C468.05 133.42 467.95 133.41 467.86 133.38C467.33 133.22 467.03 132.67 467.18 132.14C467.63 130.59 468.04 129.01 468.4 127.43C468.52 126.89 469.05 126.55 469.6 126.67C470.14 126.79 470.48 127.33 470.36 127.87C469.99 129.49 469.57 131.12 469.11 132.71C468.97 133.14 468.57 133.42 468.14 133.42ZM470.31 123.8C470.26 123.8 470.2 123.8 470.15 123.79C469.6 123.7 469.23 123.19 469.32 122.65C469.57 121.06 469.78 119.43 469.94 117.82C469.99 117.27 470.49 116.85 471.03 116.92C471.58 116.97 471.98 117.46 471.93 118.01C471.77 119.66 471.56 121.33 471.3 122.97C471.22 123.45 470.79 123.8 470.31 123.8ZM471.24 113.98C471.23 113.98 471.22 113.98 471.21 113.98C470.66 113.96 470.22 113.5 470.24 112.95C470.26 112.18 470.28 111.41 470.28 110.64C470.28 109.79 470.27 108.93 470.24 108.08C470.22 107.53 470.65 107.06 471.2 107.05C471.77 107.01 472.22 107.46 472.23 108.01C472.26 108.89 472.28 109.76 472.28 110.64C472.28 111.43 472.27 112.22 472.24 113.01C472.22 113.55 471.78 113.98 471.24 113.98ZM470.89 104.13C470.38 104.13 469.95 103.75 469.9 103.23C469.73 101.61 469.51 99.9901 469.23 98.4101C469.14 97.8701 469.5 97.3501 470.04 97.2501C470.59 97.1601 471.1 97.5201 471.2 98.0601C471.48 99.6801 471.72 101.35 471.89 103.02C471.95 103.57 471.55 104.06 471 104.12C470.96 104.13 470.93 104.13 470.89 104.13ZM469.18 94.4101C468.73 94.4101 468.33 94.1101 468.21 93.6601C467.81 92.0901 467.35 90.5201 466.84 89.0001C466.66 88.4801 466.94 87.9101 467.47 87.7301C467.99 87.5501 468.56 87.8401 468.74 88.3601C469.27 89.9301 469.74 91.5401 470.16 93.1701C470.29 93.7101 469.97 94.2501 469.44 94.3801C469.35 94.4001 469.27 94.4101 469.18 94.4101ZM466.03 85.0701C465.64 85.0701 465.28 84.8401 465.11 84.4701C464.47 82.9801 463.76 81.5101 463 80.1101C462.74 79.6201 462.92 79.0201 463.41 78.7601C463.9 78.5001 464.5 78.6801 464.76 79.1701C465.54 80.6301 466.28 82.1501 466.94 83.6901C467.16 84.2001 466.93 84.7901 466.42 85.0001C466.29 85.0501 466.16 85.0701 466.03 85.0701ZM461.36 76.4001C461.03 76.4001 460.72 76.2401 460.52 75.9501C459.63 74.6001 458.68 73.2901 457.67 72.0401C457.32 71.6101 457.39 70.9801 457.83 70.6301C458.26 70.2901 458.89 70.3501 459.24 70.7901C460.28 72.0901 461.27 73.4501 462.2 74.8501C462.5 75.3101 462.38 75.9301 461.91 76.2301C461.74 76.3401 461.54 76.4001 461.36 76.4001ZM455.2 68.7001C454.94 68.7001 454.67 68.6001 454.48 68.3901C453.39 67.2401 452.21 66.1001 451 65.0001C450.59 64.6301 450.56 64.0001 450.93 63.5901C451.3 63.1801 451.93 63.1501 452.34 63.5201C453.59 64.6501 454.8 65.8301 455.93 67.0101C456.31 67.4101 456.3 68.0401 455.9 68.4201C455.7 68.6101 455.45 68.7001 455.2 68.7001ZM447.89 62.0801C447.67 62.0801 447.46 62.0101 447.27 61.8701C446.02 60.8801 444.7 59.9101 443.35 58.9801C442.9 58.6701 442.78 58.0401 443.1 57.5901C443.41 57.1401 444.04 57.0201 444.49 57.3401C445.87 58.3001 447.22 59.3001 448.51 60.3101C448.94 60.6501 449.02 61.2801 448.68 61.7101C448.48 61.9501 448.19 62.0801 447.89 62.0801ZM439.79 56.4601C439.61 56.4601 439.43 56.4101 439.27 56.3101C437.9 55.4801 436.48 54.6601 435.04 53.8801C434.55 53.6201 434.37 53.0101 434.63 52.5301C434.89 52.0401 435.5 51.8601 435.98 52.1201C437.45 52.9201 438.91 53.7501 440.31 54.6001C440.78 54.8901 440.93 55.5001 440.64 55.9801C440.45 56.2901 440.13 56.4601 439.79 56.4601ZM431.11 51.7701C430.97 51.7701 430.82 51.7401 430.68 51.6701C429.22 50.9701 427.72 50.3001 426.22 49.6801C425.71 49.4701 425.47 48.8801 425.68 48.3701C425.89 47.8601 426.48 47.6201 426.99 47.8301C428.52 48.4701 430.05 49.1501 431.54 49.8601C432.04 50.1001 432.25 50.6901 432.01 51.1901C431.84 51.5601 431.48 51.7701 431.11 51.7701ZM330.13 49.2901C329.72 49.2901 329.33 49.0401 329.19 48.6301C329 48.1101 329.27 47.5401 329.79 47.3501C331.36 46.7901 332.94 46.2501 334.49 45.7501C335.02 45.5801 335.58 45.8701 335.75 46.4001C335.92 46.9301 335.63 47.4901 335.1 47.6601C333.57 48.1501 332 48.6801 330.46 49.2401C330.36 49.2701 330.25 49.2901 330.13 49.2901ZM422.01 47.9601C421.9 47.9601 421.78 47.9401 421.67 47.9001C420.17 47.3501 418.61 46.8201 417.04 46.3201C416.51 46.1501 416.22 45.5901 416.39 45.0601C416.56 44.5301 417.12 44.2401 417.65 44.4101C419.25 44.9201 420.83 45.4601 422.36 46.0201C422.88 46.2101 423.15 46.7801 422.96 47.3001C422.8 47.7001 422.42 47.9601 422.01 47.9601ZM339.53 46.2601C339.09 46.2601 338.7 45.9701 338.57 45.5401C338.42 45.0101 338.72 44.4601 339.25 44.3001C340.82 43.8501 342.44 43.4101 344.05 43.0101C344.59 42.8801 345.13 43.2001 345.26 43.7401C345.39 44.2801 345.07 44.8201 344.53 44.9501C342.94 45.3501 341.35 45.7801 339.8 46.2201C339.71 46.2501 339.62 46.2601 339.53 46.2601ZM412.61 44.9701C412.52 44.9701 412.44 44.9601 412.35 44.9301C410.81 44.5101 409.21 44.1101 407.6 43.7501C407.06 43.6301 406.72 43.0901 406.85 42.5501C406.97 42.0101 407.5 41.6701 408.05 41.8001C409.69 42.1701 411.31 42.5801 412.88 43.0001C413.41 43.1401 413.73 43.6901 413.58 44.2301C413.45 44.6801 413.05 44.9701 412.61 44.9701ZM349.1 43.8601C348.64 43.8601 348.22 43.5401 348.12 43.0701C348 42.5301 348.35 42.0001 348.89 41.8801C350.51 41.5301 352.14 41.2101 353.76 40.9101C354.31 40.8101 354.82 41.1701 354.92 41.7201C355.02 42.2601 354.66 42.7801 354.11 42.8801C352.52 43.1701 350.9 43.4901 349.31 43.8301C349.24 43.8501 349.17 43.8601 349.1 43.8601ZM402.99 42.7801C402.93 42.7801 402.87 42.7801 402.81 42.7601C401.24 42.4701 399.61 42.2001 397.98 41.9601C397.43 41.8801 397.06 41.3701 397.14 40.8301C397.22 40.2801 397.72 39.9001 398.27 39.9901C399.93 40.2301 401.58 40.5101 403.18 40.8001C403.72 40.9001 404.08 41.4201 403.98 41.9701C403.88 42.4501 403.46 42.7801 402.99 42.7801ZM358.8 42.1001C358.31 42.1001 357.88 41.7401 357.81 41.2401C357.73 40.6901 358.11 40.1901 358.65 40.1101C360.29 39.8701 361.95 39.6601 363.57 39.4801C364.11 39.4301 364.61 39.8101 364.67 40.3601C364.73 40.9101 364.33 41.4001 363.79 41.4601C362.19 41.6401 360.55 41.8501 358.93 42.0801C358.89 42.1001 358.84 42.1001 358.8 42.1001ZM393.22 41.3601C393.18 41.3601 393.15 41.3601 393.11 41.3501C391.52 41.1801 389.88 41.0401 388.23 40.9201C387.68 40.8801 387.26 40.4001 387.3 39.8501C387.34 39.3001 387.82 38.9001 388.37 38.9201C390.04 39.0401 391.7 39.1801 393.32 39.3601C393.87 39.4201 394.27 39.9101 394.21 40.4601C394.16 40.9801 393.73 41.3601 393.22 41.3601ZM368.59 41.0101C368.07 41.0101 367.63 40.6101 367.59 40.0901C367.55 39.5401 367.96 39.0601 368.51 39.0201C370.17 38.9001 371.83 38.8001 373.47 38.7301C374.02 38.6701 374.49 39.1401 374.51 39.6901C374.53 40.2401 374.1 40.7101 373.55 40.7301C371.94 40.8001 370.3 40.8901 368.66 41.0201C368.64 41.0101 368.62 41.0101 368.59 41.0101ZM383.38 40.6801C383.37 40.6801 383.36 40.6801 383.35 40.6801C381.92 40.6401 380.48 40.6101 379.07 40.6101H378.45C377.9 40.6101 377.45 40.1701 377.45 39.6101C377.45 39.0601 377.89 38.6101 378.45 38.6101H379.08C380.51 38.6101 381.97 38.6301 383.42 38.6801C383.97 38.7001 384.41 39.1601 384.39 39.7101C384.36 40.2501 383.92 40.6801 383.38 40.6801Z" fill="#E0E0E0"></path><path d="M323.11 51.9902C322.72 51.9902 322.34 51.7602 322.19 51.3702C321.98 50.8602 322.22 50.2702 322.73 50.0602C323.51 49.7402 324.29 49.4302 325.06 49.1202C325.58 48.9202 326.15 49.1702 326.36 49.6802C326.56 50.1902 326.31 50.7702 325.8 50.9802C325.03 51.2802 324.26 51.5902 323.49 51.9102C323.36 51.9702 323.23 51.9902 323.11 51.9902Z" fill="#E0E0E0"></path><path d="M100.44 143.16L146.43 120.62L113.26 152.16L100.44 143.16Z" fill="#009FCF"></path><path d="M146.43 120.62L95.7299 137.3L82.8999 128.3L146.43 120.62Z" fill="#009FCF"></path><path d="M95.73 137.3L97.73 150.18L100.44 143.16L146.43 120.62L95.73 137.3Z" fill="#009FCF"></path><path opacity="0.25" d="M95.73 137.3L97.73 150.18L100.44 143.16L146.43 120.62L95.73 137.3Z" fill="black"></path><path d="M97.73 150.18L104.72 146.16L100.44 143.16L97.73 150.18Z" fill="#009FCF"></path><path opacity="0.25" d="M100.44 143.16L104.72 146.16L103.6 146.8L100.44 143.16Z" fill="black"></path><path d="M103.9 278.13C103.79 278.13 103.67 278.11 103.56 278.07C101.94 277.49 100.35 276.89 98.85 276.3C98.34 276.1 98.09 275.52 98.29 275C98.49 274.49 99.08 274.24 99.59 274.44C101.07 275.03 102.63 275.62 104.24 276.19C104.76 276.38 105.03 276.95 104.84 277.47C104.69 277.88 104.31 278.13 103.9 278.13ZM94.61 274.44C94.48 274.44 94.34 274.41 94.21 274.36C92.65 273.68 91.12 272.96 89.64 272.24C89.14 272 88.94 271.4 89.18 270.9C89.42 270.4 90.02 270.2 90.52 270.44C91.97 271.15 93.48 271.85 95.02 272.53C95.53 272.75 95.76 273.34 95.53 273.85C95.36 274.22 95 274.44 94.61 274.44ZM85.64 270.04C85.48 270.04 85.31 270 85.16 269.92C83.67 269.11 82.2 268.25 80.8 267.38C80.33 267.09 80.18 266.47 80.47 266C80.76 265.53 81.38 265.38 81.85 265.67C83.23 266.52 84.67 267.36 86.13 268.15C86.61 268.42 86.79 269.02 86.53 269.51C86.34 269.85 86 270.04 85.64 270.04ZM77.15 264.79C76.95 264.79 76.75 264.73 76.58 264.61C75.18 263.64 73.82 262.62 72.52 261.59C72.09 261.25 72.02 260.62 72.36 260.19C72.7 259.76 73.33 259.69 73.76 260.03C75.02 261.03 76.35 262.02 77.72 262.97C78.17 263.29 78.28 263.91 77.97 264.36C77.78 264.64 77.47 264.79 77.15 264.79ZM69.34 258.57C69.1 258.57 68.86 258.48 68.67 258.31C67.42 257.16 66.2 255.97 65.06 254.76C64.68 254.36 64.7 253.72 65.1 253.35C65.5 252.97 66.13 252.99 66.51 253.39C67.62 254.57 68.8 255.73 70.02 256.84C70.43 257.21 70.46 257.85 70.08 258.25C69.88 258.46 69.61 258.57 69.34 258.57ZM62.5 251.31C62.21 251.31 61.92 251.18 61.72 250.94C60.66 249.63 59.65 248.25 58.7 246.86C58.39 246.4 58.51 245.78 58.97 245.47C59.43 245.16 60.05 245.28 60.36 245.74C61.28 247.09 62.26 248.42 63.28 249.69C63.63 250.12 63.56 250.75 63.13 251.1C62.94 251.23 62.72 251.31 62.5 251.31ZM56.9 243.05C56.55 243.05 56.21 242.87 56.03 242.54C55.21 241.08 54.43 239.56 53.72 238.02C53.49 237.52 53.71 236.93 54.21 236.69C54.71 236.46 55.3 236.68 55.54 237.18C56.23 238.67 56.98 240.14 57.78 241.55C58.05 242.03 57.88 242.64 57.4 242.91C57.24 243 57.07 243.05 56.9 243.05ZM52.72 233.98C52.31 233.98 51.93 233.73 51.78 233.33C51.2 231.77 50.67 230.15 50.2 228.51C50.05 227.98 50.35 227.43 50.88 227.27C51.41 227.12 51.96 227.42 52.12 227.95C52.58 229.54 53.1 231.12 53.65 232.63C53.84 233.15 53.58 233.72 53.06 233.91C52.95 233.96 52.83 233.98 52.72 233.98ZM49.93 224.39C49.47 224.39 49.06 224.07 48.95 223.6C48.6 221.99 48.29 220.31 48.02 218.63C47.94 218.08 48.31 217.57 48.85 217.49C49.4 217.41 49.91 217.78 49.99 218.32C50.25 219.97 50.55 221.6 50.9 223.18C51.02 223.72 50.68 224.25 50.14 224.37C50.08 224.38 50 224.39 49.93 224.39ZM48.37 214.52C47.86 214.52 47.43 214.14 47.38 213.62C47.21 212.01 47.07 210.31 46.97 208.59C46.94 208.04 47.36 207.57 47.91 207.53C48.46 207.52 48.93 207.92 48.97 208.47C49.07 210.16 49.2 211.82 49.37 213.41C49.43 213.96 49.03 214.45 48.48 214.51C48.44 214.52 48.41 214.52 48.37 214.52ZM47.85 204.54C47.84 204.54 47.84 204.54 47.83 204.54C47.28 204.53 46.84 204.07 46.85 203.52C46.88 201.84 46.98 200.13 47.15 198.45C47.21 197.9 47.69 197.51 48.25 197.56C48.8 197.62 49.2 198.11 49.14 198.66C48.97 200.29 48.88 201.94 48.85 203.57C48.84 204.1 48.4 204.54 47.85 204.54ZM48.85 194.6C48.79 194.6 48.73 194.6 48.67 194.58C48.13 194.48 47.77 193.96 47.87 193.42C48.17 191.76 48.55 190.1 48.99 188.46C49.13 187.93 49.69 187.61 50.21 187.75C50.74 187.89 51.06 188.44 50.92 188.97C50.5 190.55 50.13 192.17 49.84 193.77C49.75 194.26 49.32 194.6 48.85 194.6ZM51.43 184.95C51.32 184.95 51.21 184.93 51.1 184.89C50.58 184.71 50.31 184.14 50.49 183.61C51.05 182.02 51.68 180.44 52.37 178.89C52.59 178.39 53.18 178.16 53.69 178.38C54.19 178.6 54.42 179.2 54.2 179.7C53.53 181.2 52.92 182.73 52.38 184.27C52.23 184.69 51.84 184.95 51.43 184.95ZM55.49 175.82C55.33 175.82 55.16 175.78 55.01 175.7C54.52 175.44 54.35 174.83 54.61 174.34C55.42 172.86 56.29 171.39 57.21 169.98C57.51 169.52 58.13 169.39 58.59 169.69C59.05 169.99 59.18 170.61 58.88 171.07C57.99 172.44 57.14 173.86 56.36 175.3C56.19 175.63 55.85 175.82 55.49 175.82ZM60.95 167.45C60.74 167.45 60.52 167.38 60.34 167.24C59.9 166.9 59.82 166.27 60.16 165.84C61.19 164.5 62.29 163.19 63.43 161.95C63.8 161.54 64.43 161.51 64.84 161.88C65.25 162.25 65.28 162.88 64.91 163.29C63.81 164.5 62.75 165.76 61.75 167.06C61.54 167.32 61.25 167.45 60.95 167.45ZM67.68 160.07C67.41 160.07 67.15 159.96 66.95 159.75C66.57 159.35 66.6 158.71 67 158.34C68.24 157.19 69.53 156.07 70.85 155.03C71.28 154.69 71.91 154.76 72.25 155.19C72.59 155.62 72.52 156.25 72.09 156.59C70.81 157.6 69.56 158.68 68.36 159.79C68.17 159.98 67.92 160.07 67.68 160.07ZM75.52 153.88C75.2 153.88 74.88 153.72 74.69 153.43C74.38 152.97 74.51 152.35 74.97 152.04C76.37 151.11 77.83 150.22 79.31 149.4C79.79 149.13 80.4 149.31 80.67 149.79C80.94 150.27 80.76 150.88 80.28 151.15C78.85 151.94 77.44 152.8 76.08 153.7C75.9 153.82 75.71 153.88 75.52 153.88ZM84.25 149.04C83.87 149.04 83.5 148.82 83.34 148.45C83.11 147.95 83.34 147.35 83.84 147.13C85.37 146.44 86.95 145.8 88.54 145.22C89.06 145.03 89.63 145.3 89.82 145.82C90.01 146.34 89.74 146.91 89.22 147.1C87.68 147.66 86.15 148.28 84.66 148.95C84.53 149.01 84.39 149.04 84.25 149.04Z" fill="#E0E0E0"></path><path d="M335.03 415.38C335.04 415.01 334.86 414.71 334.52 414.49C333.93 414.03 333.19 413.82 332.31 413.84C331.42 413.86 330.66 414.05 330 414.4L325.97 416.53C326.3 415.93 326.55 415.32 326.7 414.7C326.82 414.21 326.87 413.71 326.86 413.2C326.84 412.36 326.86 407.7 326.86 407.25C326.87 406.35 326.67 405.43 326.26 404.49C325.65 403.1 324.46 401.75 322.68 400.44C321.45 399.49 319.98 398.46 318.25 397.33C316.53 396.2 314.96 395.25 313.54 394.46C309.89 392.49 305.94 390.92 301.7 389.74C297.46 388.56 292.9 387.99 288.03 388.03C283.16 388.07 277.98 388.81 272.47 390.25C266.97 391.69 261.17 394.02 255.06 397.26C249.85 400.02 245.91 402.89 243.25 405.87C240.59 408.85 238.98 411.79 238.42 414.68C238.25 415.58 238.17 416.46 238.18 417.34C238.19 418.32 238.17 422.53 238.18 423.37C238.18 425.36 238.66 427.3 239.6 429.19C240.94 431.88 243.01 434.32 245.8 436.5C246.39 436.96 247.24 437.57 248.36 438.34C249.48 439.11 250.67 439.91 251.94 440.74C253.21 441.57 254.45 442.37 255.65 443.12C256.86 443.87 257.83 444.46 258.59 444.89C262.09 446.76 266.06 448.22 270.49 449.27C274.91 450.32 279.58 450.84 284.48 450.82C289.37 450.8 294.43 450.15 299.66 448.89C304.88 447.63 310.1 445.62 315.31 442.85C319.5 440.63 322.85 438.53 325.36 436.55C327.87 434.57 329.8 432.72 331.17 430.99C332.54 429.26 333.47 427.61 333.96 426.05C334.45 424.49 334.8 423.03 335.01 421.68C335.02 421.62 335.03 421.55 335.03 421.49C335.03 421.14 335.02 415.44 335.03 415.38ZM320.03 422.56C319.49 423.35 318.73 424.21 317.73 425.15C316.73 426.09 315.43 427.11 313.84 428.19C312.24 429.27 310.21 430.47 307.76 431.77C304.29 433.61 300.76 434.99 297.18 435.91C293.6 436.83 290.09 437.33 286.64 437.42C283.2 437.51 279.87 437.21 276.68 436.54C273.49 435.87 270.51 434.84 267.76 433.46C266.94 433.07 265.97 432.52 264.84 431.82C263.71 431.12 262.56 430.38 261.39 429.61C260.22 428.84 259.11 428.1 258.07 427.38C257.03 426.66 256.24 426.06 255.71 425.57C253.68 423.81 252.23 421.95 251.38 419.97C251.28 419.74 251.2 419.52 251.12 419.29C251.73 417.56 252.86 415.83 254.52 414.11C256.45 412.11 259.15 410.19 262.63 408.35C266.76 406.16 270.69 404.49 274.42 403.35C276.48 402.72 278.49 402.25 280.45 401.91L279.42 402.46C278.76 402.81 278.39 403.24 278.31 403.76C278.23 404.28 278.47 404.71 279.01 405.07L279.68 405.51C277.95 405.3 276.18 405.31 274.35 405.54C272.53 405.77 270.39 406.53 267.94 407.83C265.72 409.01 264.1 410.31 263.09 411.73C262.2 412.98 261.75 414.26 261.76 415.58C261.76 415.77 261.76 420.7 261.76 421.72C261.76 421.91 261.77 422.09 261.79 422.28C261.94 423.8 262.62 425.34 263.83 426.92C265.04 428.5 266.8 430.03 269.09 431.54C271.39 433.04 273.81 434.23 276.37 435.09C278.93 435.95 281.52 436.48 284.16 436.68C286.79 436.88 289.37 436.74 291.89 436.26C294.41 435.78 296.78 434.96 299 433.78C300.86 432.8 302.29 431.89 303.3 431.06C304.31 430.23 305.03 429.46 305.47 428.76C305.91 428.05 306.15 427.4 306.19 426.78C306.23 426.17 306.24 425.57 306.22 424.99C307.91 425.1 309.94 424.96 312.31 424.56C314.68 424.16 317.36 423.17 320.36 421.58C320.52 421.5 320.66 421.4 320.82 421.32C320.58 421.71 320.32 422.13 320.03 422.56ZM284.34 416.67C286.82 416.98 289.29 417.94 291.73 419.54C292.62 420.12 293.36 420.7 293.96 421.26C293.61 421.51 293.23 421.75 292.79 421.98C290.69 423.09 288.4 423.51 285.92 423.23C283.43 422.95 280.97 422.01 278.52 420.41C277.6 419.81 276.84 419.22 276.24 418.63C276.55 418.4 276.9 418.18 277.3 417.97C279.51 416.79 281.86 416.35 284.34 416.67ZM312.21 410.74C311.15 411.2 309.96 411.47 308.63 411.53C307.05 411.6 305.66 411.24 304.47 410.45L290.93 401.59C292.29 401.75 293.65 401.97 294.98 402.28C298.21 403.05 301.38 404.24 304.48 405.84C305.96 406.6 307.43 407.45 308.9 408.42C310.1 409.21 311.18 409.98 312.21 410.74Z" fill="#009FCF"></path><path opacity="0.2" d="M335.03 415.38C335.04 415.01 334.86 414.71 334.52 414.49C333.93 414.03 333.19 413.82 332.31 413.84C331.42 413.86 330.66 414.05 330 414.4L325.97 416.53C326.3 415.93 326.55 415.32 326.7 414.7C326.82 414.21 326.87 413.71 326.86 413.2C326.84 412.36 326.86 407.7 326.86 407.25C326.87 406.35 326.67 405.43 326.26 404.49C325.65 403.1 324.46 401.75 322.68 400.44C321.45 399.49 319.98 398.46 318.25 397.33C316.53 396.2 314.96 395.25 313.54 394.46C309.89 392.49 305.94 390.92 301.7 389.74C297.46 388.56 292.9 387.99 288.03 388.03C283.16 388.07 277.98 388.81 272.47 390.25C266.97 391.69 261.17 394.02 255.06 397.26C249.85 400.02 245.91 402.89 243.25 405.87C240.59 408.85 238.98 411.79 238.42 414.68C238.25 415.58 238.17 416.46 238.18 417.34C238.19 418.32 238.17 422.53 238.18 423.37C238.18 425.36 238.66 427.3 239.6 429.19C240.94 431.88 243.01 434.32 245.8 436.5C246.39 436.96 247.24 437.57 248.36 438.34C249.48 439.11 250.67 439.91 251.94 440.74C253.21 441.57 254.45 442.37 255.65 443.12C256.86 443.87 257.83 444.46 258.59 444.89C262.09 446.76 266.06 448.22 270.49 449.27C274.91 450.32 279.58 450.84 284.48 450.82C289.37 450.8 294.43 450.15 299.66 448.89C304.88 447.63 310.1 445.62 315.31 442.85C319.5 440.63 322.85 438.53 325.36 436.55C327.87 434.57 329.8 432.72 331.17 430.99C332.54 429.26 333.47 427.61 333.96 426.05C334.45 424.49 334.8 423.03 335.01 421.68C335.02 421.62 335.03 421.55 335.03 421.49C335.03 421.14 335.02 415.44 335.03 415.38ZM320.03 422.56C319.49 423.35 318.73 424.21 317.73 425.15C316.73 426.09 315.43 427.11 313.84 428.19C312.24 429.27 310.21 430.47 307.76 431.77C304.29 433.61 300.76 434.99 297.18 435.91C293.6 436.83 290.09 437.33 286.64 437.42C283.2 437.51 279.87 437.21 276.68 436.54C273.49 435.87 270.51 434.84 267.76 433.46C266.94 433.07 265.97 432.52 264.84 431.82C263.71 431.12 262.56 430.38 261.39 429.61C260.22 428.84 259.11 428.1 258.07 427.38C257.03 426.66 256.24 426.06 255.71 425.57C253.68 423.81 252.23 421.95 251.38 419.97C251.28 419.74 251.2 419.52 251.12 419.29C251.73 417.56 252.86 415.83 254.52 414.11C256.45 412.11 259.15 410.19 262.63 408.35C266.76 406.16 270.69 404.49 274.42 403.35C276.48 402.72 278.49 402.25 280.45 401.91L279.42 402.46C278.76 402.81 278.39 403.24 278.31 403.76C278.23 404.28 278.47 404.71 279.01 405.07L279.68 405.51C277.95 405.3 276.18 405.31 274.35 405.54C272.53 405.77 270.39 406.53 267.94 407.83C265.72 409.01 264.1 410.31 263.09 411.73C262.2 412.98 261.75 414.26 261.76 415.58C261.76 415.77 261.76 420.7 261.76 421.72C261.76 421.91 261.77 422.09 261.79 422.28C261.94 423.8 262.62 425.34 263.83 426.92C265.04 428.5 266.8 430.03 269.09 431.54C271.39 433.04 273.81 434.23 276.37 435.09C278.93 435.95 281.52 436.48 284.16 436.68C286.79 436.88 289.37 436.74 291.89 436.26C294.41 435.78 296.78 434.96 299 433.78C300.86 432.8 302.29 431.89 303.3 431.06C304.31 430.23 305.03 429.46 305.47 428.76C305.91 428.05 306.15 427.4 306.19 426.78C306.23 426.17 306.24 425.57 306.22 424.99C307.91 425.1 309.94 424.96 312.31 424.56C314.68 424.16 317.36 423.17 320.36 421.58C320.52 421.5 320.66 421.4 320.82 421.32C320.58 421.71 320.32 422.13 320.03 422.56ZM284.34 416.67C286.82 416.98 289.29 417.94 291.73 419.54C292.62 420.12 293.36 420.7 293.96 421.26C293.61 421.51 293.23 421.75 292.79 421.98C290.69 423.09 288.4 423.51 285.92 423.23C283.43 422.95 280.97 422.01 278.52 420.41C277.6 419.81 276.84 419.22 276.24 418.63C276.55 418.4 276.9 418.18 277.3 417.97C279.51 416.79 281.86 416.35 284.34 416.67ZM312.21 410.74C311.15 411.2 309.96 411.47 308.63 411.53C307.05 411.6 305.66 411.24 304.47 410.45L290.93 401.59C292.29 401.75 293.65 401.97 294.98 402.28C298.21 403.05 301.38 404.24 304.48 405.84C305.96 406.6 307.43 407.45 308.9 408.42C310.1 409.21 311.18 409.98 312.21 410.74Z" fill="black"></path><path opacity="0.1" d="M251.11 419.3C251.72 417.57 252.85 415.84 254.51 414.12C256.44 412.12 259.14 410.2 262.62 408.36C266.75 406.17 270.68 404.5 274.41 403.36C276.47 402.73 278.48 402.26 280.44 401.92L284.08 399.99C284.74 399.64 285.51 399.47 286.39 399.48C287.26 399.49 287.98 399.67 288.53 400.03L290.93 401.6C292.29 401.76 293.65 401.98 294.98 402.29C298.21 403.06 301.38 404.25 304.48 405.85C305.96 406.61 307.43 407.46 308.9 408.43C310.09 409.21 311.18 409.98 312.21 410.74C312.41 410.66 312.6 410.58 312.79 410.48C313.99 409.84 314.68 409.08 314.88 408.17C315.07 407.27 314.43 406.26 312.96 405.15C311.73 404.2 310.38 403.25 308.91 402.29C307.44 401.33 305.96 400.47 304.49 399.71C301.39 398.1 298.22 396.92 294.99 396.15C291.75 395.38 288.45 395.08 285.07 395.24C281.69 395.41 278.14 396.06 274.42 397.21C270.69 398.36 266.77 400.02 262.63 402.21C259.16 404.05 256.45 405.97 254.52 407.97C252.59 409.97 251.37 411.97 250.86 413.99C250.36 416 250.53 418 251.37 419.97C251.79 420.96 252.37 421.92 253.09 422.85C252.37 421.92 251.8 420.96 251.37 419.97C251.28 419.75 251.19 419.53 251.11 419.3Z" fill="black"></path><path opacity="0.1" d="M291.73 413.4C289.29 411.8 286.82 410.84 284.34 410.53C281.86 410.22 279.51 410.65 277.3 411.83C275.2 412.94 274.27 414.25 274.51 415.75C274.66 416.69 275.24 417.65 276.25 418.63L276.24 418.62C276.55 418.39 276.9 418.17 277.3 417.96C279.51 416.79 281.86 416.35 284.34 416.66C286.82 416.97 289.29 417.93 291.73 419.53C292.62 420.11 293.36 420.69 293.96 421.25C293.79 421.37 293.62 421.49 293.43 421.6C295.19 420.52 295.99 419.33 295.8 418.03C295.57 416.58 294.23 415.03 291.73 413.4Z" fill="black"></path><path opacity="0.1" d="M284.16 430.54C281.52 430.34 278.93 429.81 276.37 428.95C273.81 428.09 271.38 426.91 269.09 425.4C266.8 423.9 265.04 422.36 263.83 420.78C262.62 419.21 261.94 417.66 261.79 416.14C261.76 415.84 261.77 415.55 261.79 415.25C261.78 415.36 261.76 415.46 261.76 415.57C261.76 415.76 261.76 420.69 261.76 421.71C261.76 421.9 261.77 422.08 261.79 422.27C261.94 423.79 262.62 425.33 263.83 426.91C265.04 428.49 266.8 430.02 269.09 431.53C271.39 433.03 273.81 434.22 276.37 435.08C278.93 435.94 281.52 436.47 284.16 436.67V430.54Z" fill="black"></path><path opacity="0.1" d="M306.22 418.84C306.24 419.42 306.23 420.02 306.19 420.63L306.22 424.97C307.91 425.08 309.94 424.94 312.31 424.54V418.41C309.93 418.81 307.9 418.96 306.22 418.84Z" fill="black"></path><path opacity="0.1" d="M270.49 443.14C266.06 442.09 262.1 440.63 258.6 438.76C257.84 438.33 256.86 437.74 255.66 436.99C254.46 436.24 253.22 435.45 251.95 434.61C250.68 433.78 249.48 432.98 248.37 432.21C247.25 431.44 246.39 430.83 245.81 430.37C243.02 428.19 240.95 425.75 239.61 423.06C238.66 421.16 238.2 419.2 238.2 417.2C238.2 417.25 238.19 417.29 238.19 417.34C238.2 418.32 238.18 422.53 238.19 423.37C238.19 425.36 238.67 427.3 239.61 429.19C240.95 431.88 243.02 434.32 245.81 436.5C246.4 436.96 247.25 437.57 248.37 438.34C249.49 439.11 250.68 439.91 251.95 440.74C253.22 441.57 254.46 442.37 255.66 443.12C256.87 443.87 257.85 444.46 258.6 444.89C262.1 446.76 266.07 448.22 270.5 449.27C274.92 450.32 279.59 450.84 284.48 450.82V444.69C279.58 444.71 274.92 444.2 270.49 443.14Z" fill="black"></path><path d="M322.68 400.45C324.46 401.76 325.65 403.1 326.26 404.5C326.87 405.89 327.01 407.25 326.7 408.57C326.38 409.89 325.67 411.14 324.55 412.33C323.43 413.51 322.03 414.55 320.36 415.44C317.37 417.03 314.68 418.02 312.31 418.42C309.94 418.82 307.91 418.96 306.22 418.85C306.24 419.43 306.23 420.03 306.19 420.64C306.15 421.25 305.91 421.91 305.47 422.62C305.03 423.33 304.31 424.09 303.3 424.92C302.29 425.75 300.86 426.66 299 427.64C296.78 428.81 294.42 429.64 291.89 430.12C289.37 430.6 286.79 430.74 284.16 430.54C281.52 430.34 278.93 429.81 276.37 428.95C273.81 428.09 271.38 426.91 269.09 425.4C266.8 423.9 265.04 422.36 263.83 420.78C262.62 419.21 261.94 417.66 261.79 416.14C261.64 414.62 262.07 413.15 263.09 411.72C264.11 410.29 265.73 408.99 267.94 407.82C270.39 406.52 272.53 405.76 274.35 405.53C276.17 405.31 277.95 405.29 279.68 405.5L279.01 405.06C278.46 404.7 278.23 404.27 278.31 403.75C278.39 403.23 278.76 402.8 279.42 402.45L284.09 399.97C284.75 399.62 285.52 399.45 286.4 399.46C287.27 399.47 287.99 399.65 288.54 400.01L304.48 410.45C305.68 411.23 307.07 411.59 308.64 411.53C310.22 411.46 311.6 411.11 312.8 410.48C314 409.84 314.69 409.08 314.89 408.17C315.08 407.27 314.44 406.26 312.97 405.15C311.74 404.2 310.39 403.25 308.92 402.29C307.45 401.33 305.98 400.47 304.5 399.71C301.4 398.1 298.23 396.92 295 396.15C291.76 395.38 288.46 395.08 285.08 395.24C281.7 395.41 278.15 396.06 274.43 397.21C270.7 398.36 266.78 400.02 262.64 402.21C259.17 404.05 256.46 405.97 254.53 407.97C252.6 409.97 251.38 411.97 250.87 413.99C250.37 416 250.54 418 251.38 419.97C252.23 421.95 253.67 423.81 255.71 425.57C256.24 426.06 257.02 426.66 258.07 427.38C259.11 428.1 260.22 428.84 261.39 429.61C262.56 430.38 263.72 431.11 264.84 431.82C265.97 432.52 266.94 433.07 267.76 433.46C270.51 434.84 273.49 435.86 276.68 436.54C279.88 437.21 283.2 437.51 286.64 437.42C290.09 437.34 293.6 436.83 297.18 435.91C300.76 434.99 304.29 433.61 307.76 431.77C310.22 430.47 312.24 429.28 313.84 428.19C315.43 427.11 316.73 426.09 317.73 425.15C318.73 424.21 319.49 423.34 320.03 422.56C320.56 421.77 321 421.03 321.33 420.32C321.59 419.71 321.83 419.25 322.04 418.92C322.25 418.6 322.69 418.26 323.35 417.91L330 414.39C330.66 414.04 331.43 413.85 332.31 413.83C333.19 413.8 333.93 414.02 334.52 414.48C334.92 414.74 335.09 415.1 335.02 415.55C334.81 416.9 334.46 418.36 333.97 419.92C333.48 421.48 332.55 423.12 331.18 424.86C329.81 426.59 327.88 428.44 325.37 430.42C322.86 432.4 319.51 434.5 315.32 436.72C310.11 439.48 304.89 441.49 299.67 442.76C294.44 444.02 289.38 444.67 284.49 444.69C279.59 444.71 274.93 444.2 270.5 443.14C266.07 442.09 262.11 440.63 258.6 438.76C257.84 438.33 256.86 437.74 255.66 436.99C254.46 436.24 253.22 435.45 251.95 434.61C250.68 433.78 249.48 432.98 248.37 432.21C247.25 431.44 246.39 430.83 245.81 430.37C243.02 428.19 240.95 425.75 239.61 423.06C238.27 420.37 237.88 417.58 238.44 414.68C239 411.78 240.61 408.84 243.27 405.87C245.93 402.89 249.87 400.02 255.08 397.26C261.19 394.02 266.99 391.68 272.49 390.25C277.99 388.81 283.18 388.07 288.05 388.03C292.92 387.99 297.48 388.56 301.72 389.74C305.96 390.92 309.91 392.49 313.56 394.46C314.98 395.25 316.55 396.2 318.27 397.33C319.98 398.47 321.45 399.51 322.68 400.45ZM278.52 420.4C280.96 422 283.43 422.94 285.92 423.22C288.4 423.5 290.69 423.08 292.79 421.97C295 420.8 296.01 419.48 295.8 418.03C295.58 416.58 294.23 415.03 291.74 413.4C289.3 411.8 286.83 410.84 284.35 410.53C281.87 410.22 279.52 410.65 277.31 411.83C275.21 412.94 274.28 414.25 274.52 415.75C274.74 417.25 276.08 418.8 278.52 420.4Z" fill="#009FCF"></path><path d="M324.08 373.21V373.95C324.08 375.13 324.91 376.56 325.92 377.15L365.5 400C366.52 400.59 368.17 400.59 369.19 400L434.73 362.16C435.75 361.57 436.57 360.14 436.57 358.96V358.22C436.57 357.04 435.74 355.61 434.72 355.02L395.14 332.17C394.12 331.58 392.47 331.58 391.45 332.17L325.91 370.01C324.9 370.6 324.08 372.03 324.08 373.21Z" fill="#009FCF"></path><path d="M324.08 373.21V373.95C324.08 375.13 324.91 376.56 325.92 377.15L365.5 400C366.52 400.59 368.17 400.59 369.19 400L434.73 362.16C435.75 361.57 436.57 360.14 436.57 358.96V358.22C436.57 357.04 435.74 355.61 434.72 355.02L395.14 332.17C394.12 331.58 392.47 331.58 391.45 332.17L325.91 370.01C324.9 370.6 324.08 372.03 324.08 373.21Z" fill="#009FCF"></path><path opacity="0.2" d="M367.34 346.09L325.92 370.01C324.9 370.6 324.08 372.03 324.08 373.21V373.95C324.08 375.13 324.91 376.56 325.92 377.15L365.5 400C366.01 400.29 366.68 400.44 367.34 400.44V346.09Z" fill="black"></path><path opacity="0.15" d="M367.34 346.09L325.92 370.01C324.9 370.6 324.08 372.03 324.08 373.21V373.95C324.08 375.13 324.91 376.56 325.92 377.15L365.5 400C366.01 400.29 366.68 400.44 367.34 400.44V346.09Z" fill="black"></path><path opacity="0.2" d="M434.73 355.02L395.15 332.17C394.13 331.58 392.48 331.58 391.46 332.17L367.35 346.09V400.42C368.02 400.42 368.69 400.27 369.2 399.98L434.74 362.14C435.76 361.55 436.59 360.12 436.59 358.94V358.2C436.57 357.04 435.75 355.61 434.73 355.02Z" fill="black"></path><path d="M359.16 391.33L325.92 372.14C324.9 371.55 324.9 370.6 325.92 370.01L391.46 332.17C392.48 331.58 394.13 331.58 395.15 332.17L434.73 355.02C435.75 355.61 435.75 356.56 434.73 357.15L423.86 363.43L420.05 365.63L369.19 394.99C368.17 395.58 366.52 395.58 365.5 394.99L362.28 393.13L359.16 391.33Z" fill="#009FCF"></path><path opacity="0.15" d="M389.34 359.45L434.73 355.02L389.74 357.57L395.15 332.17C394.6 331.85 393.86 331.72 393.14 331.75L384.65 366.08L325.17 370.99C325.13 371.41 325.37 371.83 325.92 372.15L373.95 369.36L367.34 395.44L375.79 369.25L383.99 368.77C385.02 368.71 385.97 368.29 386.7 367.64V367.63C387.38 367.02 387.88 366.2 388.08 365.25L389.34 359.45Z" fill="black"></path><path opacity="0.3" d="M339.36 369.81L384.65 366.07L386.27 359.58L387.16 355.97L393.14 331.74C392.53 331.76 391.92 331.89 391.45 332.16L358.68 351.08L325.91 370C325.44 370.27 325.2 370.62 325.16 370.97L334.24 370.22L339.36 369.81Z" fill="white"></path></svg>